<svg width="220" height="160" fill="none" xmlns="http://www.w3.org/2000/svg"><rect x=".5" y=".5" width="219" height="159" rx="9.5" fill="#fff" stroke="#BAD6EB"/><path d="m198.5 1-93 158h-84l93-158h84Z" fill="#EDF5F9"/><rect x="8" y="8" width="204" height="144" rx="5" fill="#EDF5F9"/><path fill-rule="evenodd" clip-rule="evenodd" d="M114.93 1.25a.5.5 0 1 0-.86-.5l-3.98 6.75H13A5.5 5.5 0 0 0 7.5 13v134a5.5 5.5 0 0 0 5.5 5.5h11.75l-3.68 6.25a.5.5 0 0 0 .86.5L59.2 95.94l.91 1.57-36.04 61.24a.5.5 0 0 0 .86.5L60.7 98.51l.9 1.58-34.52 58.66a.5.5 0 0 0 .86.5l34.24-58.17.91 1.58-33.01 56.09a.5.5 0 0 0 .86.5l32.73-55.6.9 1.58-31.5 53.52a.5.5 0 0 0 .87.5l31.21-53.02.91 1.58-29.98 50.94a.5.5 0 0 0 .86.5l29.7-50.45.9 1.58-28.46 48.37a.5.5 0 0 0 .86.5l28.18-47.88.91 1.58-26.95 45.8a.5.5 0 0 0 .86.5l26.67-45.3.91 1.57-25.44 43.23a.5.5 0 0 0 .86.5l25.15-42.73.92 1.58-23.93 40.65a.5.5 0 0 0 .86.5l23.64-40.16.91 1.58-22.41 38.08a.5.5 0 0 0 .86.5l22.13-37.58.9 1.57-20.9 35.5a.5.5 0 0 0 .87.51l20.61-35.01.91 1.58-19.38 32.93a.5.5 0 0 0 .86.5l19.1-32.44.08.15c.27.46.57.9.9 1.3l-17.94 30.49a.5.5 0 0 0 .86.5l17.78-30.2c.38.37.8.72 1.23 1.03l-16.87 28.67a.5.5 0 0 0 .86.5l16.85-28.62c.46.26.94.49 1.44.68l-16.15 27.44a.5.5 0 0 0 .86.5l16.26-27.63c.55.15 1.1.25 1.67.3l-15.8 26.83a.5.5 0 0 0 .87.5L86 131.96h1.83l-15.76 26.79a.5.5 0 0 0 .86.5L89 131.96h1.83l-15.76 26.79a.5.5 0 0 0 .86.5L92 131.96h1.83l-15.76 26.79a.5.5 0 0 0 .86.5L95 131.96h1.83l-15.76 26.79a.5.5 0 0 0 .86.5L98 131.96h1.83l-15.76 26.79a.5.5 0 0 0 .86.5L101 131.96h1.84l-15.76 26.79a.5.5 0 0 0 .86.5L104 131.96h1.84l-15.76 26.79a.5.5 0 0 0 .86.5L107 131.96h1.84l-15.76 26.79a.5.5 0 0 0 .86.5L110 131.96h1.84l-15.76 26.79a.5.5 0 0 0 .86.5L113 131.96h1.84l-15.76 26.79a.5.5 0 0 0 .86.5L116 131.96h1.84l-15.76 26.79a.5.5 0 0 0 .86.5L119 131.96h1.84l-15.76 26.79a.5.5 0 0 0 .86.5l3.98-6.75H207a5.5 5.5 0 0 0 5.5-5.5V13a5.5 5.5 0 0 0-5.5-5.5h-11.75l3.68-6.25a.5.5 0 1 0-.86-.5L160.8 64.06l-.91-1.57 36.04-61.24a.5.5 0 1 0-.86-.5L159.3 61.49l-.9-1.58 34.52-58.66a.5.5 0 1 0-.86-.5l-34.24 58.17-.91-1.58 33.01-56.09a.5.5 0 1 0-.86-.5l-32.73 55.6-.9-1.58 31.5-53.52a.5.5 0 1 0-.87-.5l-31.21 53.02-.91-1.58 29.98-50.94a.5.5 0 1 0-.86-.5l-29.7 50.45-.9-1.58 28.46-48.37a.5.5 0 1 0-.86-.5l-28.18 47.88-.91-1.58 26.95-45.8a.5.5 0 1 0-.86-.5l-26.67 45.3-.91-1.57 25.44-43.23a.5.5 0 1 0-.86-.5l-25.15 42.73-.91-1.58 23.92-40.65a.5.5 0 1 0-.86-.5L147.43 40.9l-.91-1.58 22.41-38.08a.5.5 0 1 0-.86-.5l-22.13 37.58-.9-1.57 20.9-35.5a.5.5 0 1 0-.87-.51l-20.61 35.01-.91-1.58 19.38-32.93a.5.5 0 1 0-.86-.5l-19.1 32.44-.08-.15a10 10 0 0 0-.9-1.3l17.94-30.49a.5.5 0 1 0-.86-.5l-17.78 30.2a11 11 0 0 0-1.23-1.03l16.87-28.67a.5.5 0 1 0-.86-.5l-16.85 28.62c-.46-.26-.94-.49-1.44-.68l16.15-27.44a.5.5 0 1 0-.86-.5L136.8 28.38a10 10 0 0 0-1.67-.3l15.8-26.83a.5.5 0 1 0-.87-.5L134 28.04h-1.84l15.76-26.79a.5.5 0 1 0-.86-.5L131 28.04h-1.84l15.76-26.79a.5.5 0 1 0-.86-.5L128 28.04h-1.84l15.76-26.79a.5.5 0 1 0-.86-.5L125 28.04h-1.84l15.76-26.79a.5.5 0 1 0-.86-.5L122 28.04h-1.84l15.76-26.79a.5.5 0 1 0-.86-.5L119 28.04h-1.84l15.76-26.79a.5.5 0 1 0-.86-.5L116 28.04h-1.84l15.76-26.79a.5.5 0 1 0-.86-.5L113 28.04h-1.84l15.76-26.79a.5.5 0 1 0-.86-.5L110 28.04h-1.84l15.76-26.79a.5.5 0 1 0-.86-.5L107 28.04h-1.84l15.76-26.79a.5.5 0 1 0-.86-.5L104 28.04h-1.84l15.76-26.79a.5.5 0 1 0-.86-.5L101 28.04h-1.84l15.76-26.79Zm79.74 7.25-33.3 56.56 2.34 4.04 3.84-2.4c.43-.26.69-.72.7-1.22l.22-6.37a2.5 2.5 0 0 1 1.18-2.03l5.4-3.37c.43-.27.69-.72.7-1.22l.22-6.37a2.5 2.5 0 0 1 1.18-2.03l5.4-3.37c.43-.27.69-.72.7-1.22l.22-6.37a2.5 2.5 0 0 1 1.18-2.03l5.4-3.37c.43-.27.69-.72.7-1.22l.22-6.37a2.5 2.5 0 0 1 1.18-2.03l5.4-3.37c.43-.27.69-.72.7-1.22l.18-5.02h-3.76Zm4.76 0-.17 5.05a2.5 2.5 0 0 1-1.18 2.04l-5.4 3.36a1.5 1.5 0 0 0-.7 1.23l-.22 6.36a2.5 2.5 0 0 1-1.18 2.04l-5.4 3.36a1.5 1.5 0 0 0-.7 1.23l-.22 6.36a2.5 2.5 0 0 1-1.18 2.04l-5.4 3.36a1.5 1.5 0 0 0-.7 1.23l-.22 6.36a2.5 2.5 0 0 1-1.18 2.04l-5.4 3.37a1.5 1.5 0 0 0-.7 1.22l-.22 6.36a2.5 2.5 0 0 1-1.18 2.04l-3.88 2.41 2.3 3.98c.2-.35.49-.65.84-.87l5.4-3.37c.43-.26.7-.72.71-1.22l.22-6.37a2.5 2.5 0 0 1 1.17-2.03l5.4-3.37c.43-.27.7-.72.71-1.22l.22-6.37a2.5 2.5 0 0 1 1.17-2.03l5.4-3.37c.43-.27.7-.72.71-1.22l.22-6.37a2.5 2.5 0 0 1 1.17-2.03l5.4-3.37c.43-.27.7-.72.71-1.22l.22-6.37a2.5 2.5 0 0 1 1.17-2.03l5.4-3.37c.43-.27.7-.72.71-1.22l.22-6.37a2.5 2.5 0 0 1 .7-1.65h-4.94Zm6.69 0-.75.46a1.5 1.5 0 0 0-.7 1.23l-.22 6.36a2.5 2.5 0 0 1-1.17 2.04l-5.4 3.36a1.5 1.5 0 0 0-.71 1.23l-.22 6.36a2.5 2.5 0 0 1-1.17 2.04l-5.4 3.36a1.5 1.5 0 0 0-.71 1.23l-.22 6.36a2.5 2.5 0 0 1-1.17 2.04l-5.4 3.36a1.5 1.5 0 0 0-.71 1.23l-.22 6.36a2.5 2.5 0 0 1-1.17 2.04l-5.4 3.37a1.5 1.5 0 0 0-.71 1.22l-.22 6.36a2.5 2.5 0 0 1-1.17 2.04l-5.4 3.37c-.42.25-.68.7-.71 1.18a10 10 0 0 1-.06 9.9l-2.59 4.48c.16-.16.33-.3.52-.42l5.4-3.37c.43-.26.7-.72.71-1.22l.21-6.37a2.5 2.5 0 0 1 1.18-2.03l5.4-3.37c.43-.26.7-.72.71-1.22l.21-6.37a2.5 2.5 0 0 1 1.18-2.03l5.4-3.37c.43-.27.7-.72.71-1.22l.21-6.37a2.5 2.5 0 0 1 1.18-2.03l5.4-3.37c.43-.27.7-.72.71-1.22l.21-6.37a2.5 2.5 0 0 1 1.18-2.03l5.4-3.37c.43-.27.7-.72.71-1.22l.21-6.37a2.5 2.5 0 0 1 1.18-2.03l5.4-3.37c.43-.27.7-.72.71-1.22l.21-6.37a2.5 2.5 0 0 1 1.18-2.04l.78-.48A4.5 4.5 0 0 0 207 8.5h-.88Zm5.14 3.04-.7.42a1.5 1.5 0 0 0-.7 1.23l-.21 6.36a2.5 2.5 0 0 1-1.18 2.04l-5.4 3.36a1.5 1.5 0 0 0-.7 1.23l-.22 6.36a2.5 2.5 0 0 1-1.18 2.04l-5.4 3.36a1.5 1.5 0 0 0-.7 1.23l-.22 6.36a2.5 2.5 0 0 1-1.18 2.04l-5.4 3.36a1.5 1.5 0 0 0-.7 1.23l-.22 6.36a2.5 2.5 0 0 1-1.18 2.04l-5.4 3.37a1.5 1.5 0 0 0-.7 1.22l-.22 6.36a2.5 2.5 0 0 1-1.18 2.04l-5.4 3.37a1.5 1.5 0 0 0-.7 1.22l-.22 6.36a2.5 2.5 0 0 1-1.18 2.04l-5.4 3.37a1.5 1.5 0 0 0-.7 1.22l-.22 6.36a2.5 2.5 0 0 1-1.18 2.04l-5.4 3.37a1.5 1.5 0 0 0-.7 1.22l-.22 6.36a2.5 2.5 0 0 1-1.18 2.04l-5.4 3.37a1.5 1.5 0 0 0-.7 1.22l-.22 6.36a2.5 2.5 0 0 1-1.18 2.04l-5.4 3.37a1.5 1.5 0 0 0-.7 1.22l-.22 6.36a2.5 2.5 0 0 1-1.18 2.04l-5.4 3.37a1.5 1.5 0 0 0-.7 1.22l-.22 6.36a2.5 2.5 0 0 1-1.18 2.04l-.01.01h5.42l.18-5.44a2.5 2.5 0 0 1 1.18-2.04l5.4-3.37c.42-.26.69-.72.7-1.22l.22-6.36a2.5 2.5 0 0 1 1.18-2.04l5.4-3.37c.42-.26.69-.72.7-1.22l.22-6.36a2.5 2.5 0 0 1 1.18-2.04l5.4-3.37c.42-.26.69-.72.7-1.22l.22-6.37a2.5 2.5 0 0 1 1.18-2.03l5.4-3.37c.42-.26.69-.72.7-1.22l.22-6.37a2.5 2.5 0 0 1 1.18-2.03l5.4-3.37c.42-.26.69-.72.7-1.22l.22-6.37a2.5 2.5 0 0 1 1.18-2.03l5.4-3.37c.42-.26.69-.72.7-1.22l.22-6.37a2.5 2.5 0 0 1 1.18-2.03l5.4-3.37c.42-.27.69-.72.7-1.22l.22-6.37a2.5 2.5 0 0 1 1.18-2.03l5.4-3.37c.42-.27.69-.72.7-1.22l.22-6.37a2.5 2.5 0 0 1 1.18-2.03l5.4-3.37c.42-.27.69-.72.7-1.22l.22-6.37a2.5 2.5 0 0 1 1.18-2.03l3.76-2.35V13c0-.51-.09-1-.24-1.46Zm.24 14.4-3.24 2.01a1.5 1.5 0 0 0-.7 1.23l-.22 6.36a2.5 2.5 0 0 1-1.17 2.04l-5.4 3.36a1.5 1.5 0 0 0-.71 1.23l-.22 6.36a2.5 2.5 0 0 1-1.17 2.04l-5.4 3.36a1.5 1.5 0 0 0-.71 1.23l-.22 6.36a2.5 2.5 0 0 1-1.17 2.04l-5.4 3.37a1.5 1.5 0 0 0-.71 1.22l-.22 6.36a2.5 2.5 0 0 1-1.17 2.04l-5.4 3.37a1.5 1.5 0 0 0-.71 1.22l-.22 6.36a2.5 2.5 0 0 1-1.17 2.04l-5.4 3.37a1.5 1.5 0 0 0-.71 1.22l-.22 6.36a2.5 2.5 0 0 1-1.17 2.04l-5.4 3.37a1.5 1.5 0 0 0-.71 1.22l-.22 6.36a2.5 2.5 0 0 1-1.17 2.04l-5.4 3.37a1.5 1.5 0 0 0-.71 1.22l-.22 6.36a2.5 2.5 0 0 1-1.17 2.04l-5.4 3.37a1.5 1.5 0 0 0-.71 1.22l-.22 6.36a2.5 2.5 0 0 1-1.17 2.04l-5.4 3.37a1.5 1.5 0 0 0-.71 1.22l-.18 5.41h4.3l.08-2.44a2.5 2.5 0 0 1 1.17-2.04l5.4-3.37c.43-.26.7-.72.71-1.22l.22-6.36a2.5 2.5 0 0 1 1.17-2.04l5.4-3.37c.43-.26.7-.72.71-1.22l.22-6.36a2.5 2.5 0 0 1 1.17-2.04l5.4-3.37c.43-.26.7-.72.71-1.22l.22-6.37a2.5 2.5 0 0 1 1.17-2.03l5.4-3.37c.43-.26.7-.72.71-1.22l.22-6.37a2.5 2.5 0 0 1 1.17-2.03l5.4-3.37c.43-.26.7-.72.71-1.22l.22-6.37a2.5 2.5 0 0 1 1.17-2.03l5.4-3.37c.43-.26.7-.72.71-1.22l.22-6.37a2.5 2.5 0 0 1 1.17-2.03l5.4-3.37c.43-.27.7-.72.71-1.22l.22-6.37a2.5 2.5 0 0 1 1.17-2.03l5.4-3.37c.43-.27.7-.72.71-1.22l.22-6.37a2.5 2.5 0 0 1 1.17-2.03l5.4-3.37c.34-.21.58-.54.67-.92V25.94Zm0 14.55-.13.09-5.4 3.36a1.5 1.5 0 0 0-.72 1.23l-.2 6.36a2.5 2.5 0 0 1-1.19 2.04l-5.4 3.36a1.5 1.5 0 0 0-.7 1.23l-.22 6.36a2.5 2.5 0 0 1-1.17 2.04l-5.4 3.37a1.5 1.5 0 0 0-.72 1.22l-.2 6.36a2.5 2.5 0 0 1-1.19 2.04l-5.4 3.37a1.5 1.5 0 0 0-.7 1.22l-.22 6.36a2.5 2.5 0 0 1-1.17 2.04l-5.4 3.37a1.5 1.5 0 0 0-.72 1.22l-.2 6.36a2.5 2.5 0 0 1-1.19 2.04l-5.4 3.37a1.5 1.5 0 0 0-.7 1.22l-.22 6.36a2.5 2.5 0 0 1-1.17 2.04l-5.4 3.37a1.5 1.5 0 0 0-.72 1.22l-.2 6.36a2.5 2.5 0 0 1-1.19 2.04l-5.4 3.37a1.5 1.5 0 0 0-.7 1.22l-.22 6.36a2.5 2.5 0 0 1-1.17 2.04l-5.4 3.37a1.5 1.5 0 0 0-.72 1.22l-.08 2.41h4.36a2.5 2.5 0 0 1 1.1-1.48l5.4-3.37c.43-.26.7-.72.7-1.22l.22-6.36a2.5 2.5 0 0 1 1.18-2.04l5.4-3.37c.43-.26.7-.72.7-1.22l.22-6.36a2.5 2.5 0 0 1 1.18-2.04l5.4-3.37c.43-.26.7-.72.7-1.22l.22-6.37a2.5 2.5 0 0 1 1.18-2.03l5.4-3.37c.43-.26.7-.72.7-1.22l.22-6.36a2.5 2.5 0 0 1 1.18-2.04l5.4-3.37c.43-.26.7-.72.7-1.22l.22-6.37a2.5 2.5 0 0 1 1.18-2.03l5.4-3.37c.43-.26.7-.72.7-1.22l.22-6.37a2.5 2.5 0 0 1 1.18-2.03l5.4-3.37c.43-.27.7-.72.7-1.22l.22-6.37a2.5 2.5 0 0 1 1.18-2.03l5.4-3.37c.43-.27.7-.72.7-1.22l.22-6.37a2.5 2.5 0 0 1 1.18-2.03l.87-.55V40.5Zm0 6.24-.34.21a1.5 1.5 0 0 0-.7 1.23l-.22 6.36a2.5 2.5 0 0 1-1.18 2.04l-5.4 3.36a1.5 1.5 0 0 0-.7 1.23l-.22 6.36a2.5 2.5 0 0 1-1.18 2.04l-5.4 3.37a1.5 1.5 0 0 0-.7 1.22l-.22 6.36a2.5 2.5 0 0 1-1.18 2.04l-5.4 3.37a1.5 1.5 0 0 0-.7 1.22l-.22 6.36a2.5 2.5 0 0 1-1.18 2.04l-5.4 3.37a1.5 1.5 0 0 0-.7 1.22l-.22 6.36a2.5 2.5 0 0 1-1.18 2.04l-5.4 3.37a1.5 1.5 0 0 0-.7 1.22l-.22 6.36a2.5 2.5 0 0 1-1.18 2.04l-5.4 3.37a1.5 1.5 0 0 0-.7 1.22l-.22 6.36a2.5 2.5 0 0 1-1.18 2.04l-5.4 3.37a1.5 1.5 0 0 0-.7 1.22l-.22 6.36a2.5 2.5 0 0 1-1.18 2.04l-5.4 3.37a1.5 1.5 0 0 0-.57.63h7.67l2.97-1.85c.42-.26.69-.72.7-1.22l.22-6.36a2.5 2.5 0 0 1 1.17-2.04l5.4-3.37c.43-.26.7-.72.71-1.22l.22-6.36a2.5 2.5 0 0 1 1.17-2.04l5.4-3.37c.43-.26.7-.72.71-1.22l.22-6.37a2.5 2.5 0 0 1 1.17-2.03l5.4-3.37c.43-.26.7-.72.71-1.22l.22-6.36a2.5 2.5 0 0 1 1.17-2.04l5.4-3.37c.43-.26.7-.72.71-1.22l.22-6.37a2.5 2.5 0 0 1 1.17-2.03l5.4-3.37c.43-.26.7-.72.71-1.22l.22-6.37a2.5 2.5 0 0 1 1.17-2.03l5.4-3.37c.43-.27.7-.72.71-1.22l.22-6.37a2.5 2.5 0 0 1 1.17-2.03l3.18-1.98V46.73Zm0 14.56-2.65 1.64a1.5 1.5 0 0 0-.7 1.23l-.22 6.36a2.5 2.5 0 0 1-1.17 2.04l-5.4 3.37a1.5 1.5 0 0 0-.71 1.22l-.22 6.36a2.5 2.5 0 0 1-1.17 2.04l-5.4 3.37a1.5 1.5 0 0 0-.71 1.22l-.22 6.36a2.5 2.5 0 0 1-1.17 2.04l-5.4 3.37a1.5 1.5 0 0 0-.71 1.22l-.22 6.36a2.5 2.5 0 0 1-1.17 2.04l-5.4 3.37a1.5 1.5 0 0 0-.71 1.22l-.22 6.36a2.5 2.5 0 0 1-1.17 2.04l-5.4 3.37a1.5 1.5 0 0 0-.71 1.22l-.22 6.36a2.5 2.5 0 0 1-1.17 2.04l-5.4 3.37a1.5 1.5 0 0 0-.71 1.22l-.22 6.36a2.5 2.5 0 0 1-1.17 2.04l-1.6 1h6.97v-.07l.21-6.36a2.5 2.5 0 0 1 1.18-2.04l5.4-3.37c.43-.26.7-.72.71-1.22l.21-6.36a2.5 2.5 0 0 1 1.18-2.04l5.4-3.37c.43-.26.7-.72.71-1.22l.21-6.37a2.5 2.5 0 0 1 1.18-2.03l5.4-3.37c.43-.26.7-.72.71-1.22l.21-6.36a2.5 2.5 0 0 1 1.18-2.04l5.4-3.37c.43-.26.7-.72.71-1.22l.21-6.37a2.5 2.5 0 0 1 1.18-2.03l5.4-3.37c.43-.26.7-.72.71-1.22l.21-6.37a2.5 2.5 0 0 1 1.18-2.03l5.4-3.37.08-.05V61.29Zm0 14.55-4.95 3.09a1.5 1.5 0 0 0-.7 1.22l-.22 6.36a2.5 2.5 0 0 1-1.18 2.04l-5.4 3.37a1.5 1.5 0 0 0-.7 1.22l-.22 6.36a2.5 2.5 0 0 1-1.18 2.04l-5.4 3.37a1.5 1.5 0 0 0-.7 1.22l-.22 6.36a2.5 2.5 0 0 1-1.18 2.04l-5.4 3.37a1.5 1.5 0 0 0-.7 1.22l-.22 6.36a2.5 2.5 0 0 1-1.18 2.04l-5.4 3.37a1.5 1.5 0 0 0-.7 1.22l-.22 6.36a2.5 2.5 0 0 1-1.18 2.04l-5.4 3.37a1.5 1.5 0 0 0-.7 1.22l-.22 6.36v.04h4.3l.11-3.43a2.5 2.5 0 0 1 1.18-2.04l5.4-3.37c.42-.26.69-.72.7-1.22l.22-6.36a2.5 2.5 0 0 1 1.18-2.04l5.4-3.37c.42-.26.69-.72.7-1.22l.22-6.36a2.5 2.5 0 0 1 1.18-2.04l5.4-3.37c.42-.26.69-.72.7-1.22l.22-6.36a2.5 2.5 0 0 1 1.18-2.04l5.4-3.37c.42-.26.69-.72.7-1.22l.22-6.37a2.5 2.5 0 0 1 1.18-2.03l5.4-3.37c.42-.26.69-.72.7-1.22l.22-6.37a2.5 2.5 0 0 1 1.18-2.03l.28-.18v-5.06Zm0 6.28a1.5 1.5 0 0 0-.46 1.03l-.21 6.36a2.5 2.5 0 0 1-1.18 2.04l-5.4 3.37a1.5 1.5 0 0 0-.71 1.22l-.21 6.36a2.5 2.5 0 0 1-1.18 2.04l-5.4 3.37a1.5 1.5 0 0 0-.71 1.22l-.21 6.36a2.5 2.5 0 0 1-1.18 2.04l-5.4 3.37a1.5 1.5 0 0 0-.71 1.22l-.21 6.36a2.5 2.5 0 0 1-1.18 2.04l-5.4 3.37a1.5 1.5 0 0 0-.71 1.22l-.21 6.36a2.5 2.5 0 0 1-1.18 2.04l-5.4 3.37a1.5 1.5 0 0 0-.71 1.22l-.11 3.4h4.3v-.43a2.5 2.5 0 0 1 1.18-2.04l5.4-3.37c.43-.26.7-.72.71-1.22l.22-6.36a2.5 2.5 0 0 1 1.17-2.04l5.4-3.37c.43-.26.7-.72.71-1.22l.22-6.36a2.5 2.5 0 0 1 1.17-2.04l5.4-3.37c.43-.26.7-.72.71-1.22l.22-6.36a2.5 2.5 0 0 1 1.17-2.04l5.4-3.37c.43-.26.7-.72.71-1.22l.22-6.37a2.5 2.5 0 0 1 1.17-2.03l2.59-1.62V82.12Zm0 14.51-2.06 1.29a1.5 1.5 0 0 0-.7 1.22l-.22 6.36a2.5 2.5 0 0 1-1.17 2.04l-5.4 3.37a1.5 1.5 0 0 0-.71 1.22l-.22 6.36a2.5 2.5 0 0 1-1.17 2.04l-5.4 3.37a1.5 1.5 0 0 0-.71 1.22l-.22 6.36a2.5 2.5 0 0 1-1.17 2.04l-5.4 3.37a1.5 1.5 0 0 0-.71 1.22l-.22 6.36a2.5 2.5 0 0 1-1.17 2.04l-5.4 3.37a1.5 1.5 0 0 0-.71 1.22l-.02.4h6.24l4.55-2.84c.43-.26.7-.72.7-1.22l.22-6.36a2.5 2.5 0 0 1 1.18-2.04l5.4-3.37c.43-.26.7-.72.7-1.22l.22-6.36a2.5 2.5 0 0 1 1.18-2.04l5.4-3.37c.43-.26.7-.72.7-1.22l.22-6.36a2.5 2.5 0 0 1 1.18-2.04l4.89-3.05V96.63Zm0 14.56-4.36 2.72a1.5 1.5 0 0 0-.7 1.22l-.22 6.36a2.5 2.5 0 0 1-1.18 2.04l-5.4 3.37a1.5 1.5 0 0 0-.7 1.22l-.22 6.36a2.5 2.5 0 0 1-1.18 2.04l-5.4 3.37a1.5 1.5 0 0 0-.7 1.22l-.22 6.36a2.5 2.5 0 0 1-1.18 2.04l-3.2 1.99h8.08c.3-.27.48-.65.5-1.06l.2-6.36a2.5 2.5 0 0 1 1.19-2.04l5.4-3.37c.42-.26.69-.72.7-1.22l.22-6.36a2.5 2.5 0 0 1 1.18-2.04l5.4-3.37c.42-.26.69-.72.7-1.22l.22-6.36c.02-.71.34-1.37.87-1.82v-5.1Zm0 10.75-.09 2.55a2.5 2.5 0 0 1-1.17 2.04l-5.4 3.37a1.5 1.5 0 0 0-.71 1.22l-.22 6.36a2.5 2.5 0 0 1-1.17 2.04l-5.4 3.37a1.5 1.5 0 0 0-.71 1.22l-.22 6.36c0 .37-.1.71-.25 1.03h4.52l.14-4.42a2.5 2.5 0 0 1 1.18-2.04l5.4-3.37c.43-.26.7-.72.71-1.22l.21-6.36a2.5 2.5 0 0 1 1.18-2.04l2-1.25v-8.86Zm0 10.04-1.47.92a1.5 1.5 0 0 0-.7 1.22l-.22 6.36a2.5 2.5 0 0 1-1.18 2.04l-5.4 3.37a1.5 1.5 0 0 0-.7 1.22l-.15 4.39h4.3l.04-1.42a2.5 2.5 0 0 1 1.18-2.04l4.3-2.68v-13.38Zm0 14.56-3.77 2.35a1.5 1.5 0 0 0-.7 1.22l-.06 1.39h.03a4.5 4.5 0 0 0 4.5-4.5v-.47Zm-79.93 4.96 1.37-.86c.43-.26.7-.72.71-1.22l.21-6.36a2.5 2.5 0 0 1 1.18-2.04l5.4-3.37c.43-.26.7-.72.71-1.22l.21-6.36a2.5 2.5 0 0 1 1.18-2.04l5.4-3.37c.43-.26.7-.72.71-1.22l.21-6.36c.01-.23.05-.45.12-.66l-6.1 10.54a10 10 0 0 1-5.86 4.6l-.07 1.9a2.5 2.5 0 0 1-1.17 2.04l-5.4 3.37a1.5 1.5 0 0 0-.71 1.22l-.22 6.36a2.5 2.5 0 0 1-1.17 2.04l-4.83 3.01h8.12Zm-9.8 0c.16-.19.36-.35.57-.5l5.4-3.36c.43-.26.7-.72.71-1.22l.22-6.36a2.5 2.5 0 0 1 1.17-2.04l5.4-3.37c.43-.26.7-.72.71-1.22l.06-1.63c-.58.1-1.18.16-1.78.16h-3.04c-.17.21-.37.4-.61.54l-5.4 3.37a1.5 1.5 0 0 0-.7 1.22l-.22 6.36a2.5 2.5 0 0 1-1.18 2.04l-5.4 3.37a1.5 1.5 0 0 0-.7 1.22l-.06 1.42h4.85Zm-5.85 0 .05-1.45a2.5 2.5 0 0 1 1.18-2.04l5.4-3.37c.43-.26.69-.72.7-1.22l.22-6.36a2.5 2.5 0 0 1 1.18-2.04l4.9-3.06H122l-11.5 19.54h5.43Zm-90.59 0 33.3-56.56-2.33-4.04-3.85 2.4a1.5 1.5 0 0 0-.7 1.22l-.22 6.37a2.5 2.5 0 0 1-1.18 2.03l-5.4 3.37a1.5 1.5 0 0 0-.7 1.22l-.22 6.37a2.5 2.5 0 0 1-1.18 2.03l-5.4 3.37a1.5 1.5 0 0 0-.7 1.22l-.22 6.37a2.5 2.5 0 0 1-1.18 2.03l-5.4 3.37a1.5 1.5 0 0 0-.7 1.22l-.22 6.37a2.5 2.5 0 0 1-1.18 2.03l-5.4 3.37a1.5 1.5 0 0 0-.7 1.22l-.18 5.02h3.76Zm-4.76 0 .17-5.05a2.5 2.5 0 0 1 1.18-2.04l5.4-3.36c.43-.27.7-.73.7-1.23l.22-6.36a2.5 2.5 0 0 1 1.18-2.04l5.4-3.36c.43-.27.7-.73.7-1.23l.22-6.36a2.5 2.5 0 0 1 1.18-2.04l5.4-3.37c.43-.26.7-.72.7-1.22l.22-6.36a2.5 2.5 0 0 1 1.18-2.04l5.4-3.36c.43-.27.7-.73.7-1.23l.22-6.36a2.5 2.5 0 0 1 1.18-2.04l3.87-2.41-2.3-3.98c-.2.35-.48.65-.83.87l-5.4 3.37a1.5 1.5 0 0 0-.71 1.22l-.22 6.37a2.5 2.5 0 0 1-1.17 2.03l-5.4 3.37a1.5 1.5 0 0 0-.71 1.22l-.22 6.37a2.5 2.5 0 0 1-1.17 2.03l-5.4 3.37a1.5 1.5 0 0 0-.71 1.22l-.22 6.37a2.5 2.5 0 0 1-1.17 2.03l-5.4 3.37a1.5 1.5 0 0 0-.71 1.22l-.22 6.37a2.5 2.5 0 0 1-1.17 2.03l-5.4 3.37a1.5 1.5 0 0 0-.71 1.22l-.22 6.37a2.5 2.5 0 0 1-.7 1.65h4.94Zm-6.69 0 .75-.46c.42-.27.69-.73.7-1.23l.22-6.36a2.5 2.5 0 0 1 1.17-2.04l5.4-3.36c.43-.27.7-.73.71-1.23l.22-6.36a2.5 2.5 0 0 1 1.17-2.04l5.4-3.36c.43-.27.7-.73.71-1.23l.22-6.36a2.5 2.5 0 0 1 1.17-2.04l5.4-3.37c.43-.26.7-.72.71-1.22l.22-6.36a2.5 2.5 0 0 1 1.17-2.04l5.4-3.37c.43-.26.7-.72.71-1.22l.22-6.36a2.5 2.5 0 0 1 1.17-2.04l5.4-3.37c.42-.25.68-.7.71-1.18a10 10 0 0 1 .06-9.9l2.59-4.48c-.15.16-.33.3-.52.42l-5.4 3.37a1.5 1.5 0 0 0-.71 1.22l-.21 6.37a2.5 2.5 0 0 1-1.18 2.03l-5.4 3.37a1.5 1.5 0 0 0-.71 1.22l-.21 6.37a2.5 2.5 0 0 1-1.18 2.03l-5.4 3.37a1.5 1.5 0 0 0-.71 1.22l-.21 6.37a2.5 2.5 0 0 1-1.18 2.03l-5.4 3.37a1.5 1.5 0 0 0-.71 1.22l-.21 6.37a2.5 2.5 0 0 1-1.18 2.03l-5.4 3.37a1.5 1.5 0 0 0-.71 1.22l-.21 6.37a2.5 2.5 0 0 1-1.18 2.03l-5.4 3.37a1.5 1.5 0 0 0-.71 1.22l-.21 6.37a2.5 2.5 0 0 1-1.18 2.03l-.78.5A4.5 4.5 0 0 0 13 151.5h.88Zm-5.14-3.03.7-.43c.42-.27.68-.73.7-1.23l.21-6.36a2.5 2.5 0 0 1 1.18-2.04l5.4-3.36c.43-.27.69-.73.7-1.23l.22-6.36a2.5 2.5 0 0 1 1.18-2.04l5.4-3.36c.43-.27.69-.73.7-1.23l.22-6.36a2.5 2.5 0 0 1 1.18-2.04l5.4-3.37c.43-.26.69-.72.7-1.22l.22-6.36a2.5 2.5 0 0 1 1.18-2.04l5.4-3.37c.43-.26.69-.72.7-1.22l.22-6.36a2.5 2.5 0 0 1 1.18-2.04l5.4-3.37c.43-.26.69-.72.7-1.22l.22-6.36a2.5 2.5 0 0 1 1.18-2.04l5.4-3.37c.43-.26.69-.72.7-1.22l.22-6.36a2.5 2.5 0 0 1 1.18-2.04l5.4-3.37c.43-.26.69-.72.7-1.22l.22-6.36a2.5 2.5 0 0 1 1.18-2.04l5.4-3.37c.43-.26.69-.72.7-1.22l.22-6.36a2.5 2.5 0 0 1 1.18-2.04l5.4-3.37c.43-.26.69-.72.7-1.22l.22-6.36a2.5 2.5 0 0 1 1.18-2.04l5.4-3.37c.43-.26.69-.72.7-1.22l.22-6.36a2.5 2.5 0 0 1 1.18-2.04l.01-.01h-5.42l-.18 5.44a2.5 2.5 0 0 1-1.18 2.04l-5.4 3.37a1.5 1.5 0 0 0-.7 1.22l-.22 6.36a2.5 2.5 0 0 1-1.18 2.04l-5.4 3.37a1.5 1.5 0 0 0-.7 1.22l-.22 6.36a2.5 2.5 0 0 1-1.18 2.04l-5.4 3.37a1.5 1.5 0 0 0-.7 1.22l-.22 6.36a2.5 2.5 0 0 1-1.18 2.04l-5.4 3.37a1.5 1.5 0 0 0-.7 1.22l-.22 6.37a2.5 2.5 0 0 1-1.18 2.03l-5.4 3.37a1.5 1.5 0 0 0-.7 1.22l-.22 6.37a2.5 2.5 0 0 1-1.18 2.03l-5.4 3.37a1.5 1.5 0 0 0-.7 1.22l-.22 6.37a2.5 2.5 0 0 1-1.18 2.03l-5.4 3.37a1.5 1.5 0 0 0-.7 1.22l-.22 6.37a2.5 2.5 0 0 1-1.18 2.03l-5.4 3.37a1.5 1.5 0 0 0-.7 1.22l-.22 6.37a2.5 2.5 0 0 1-1.18 2.03l-5.4 3.37a1.5 1.5 0 0 0-.7 1.22l-.22 6.37a2.5 2.5 0 0 1-1.18 2.03l-3.76 2.35V147c0 .51.09 1 .24 1.47Zm-.24-14.4 3.23-2.02c.43-.27.7-.73.71-1.23l.21-6.36a2.5 2.5 0 0 1 1.18-2.04l5.4-3.36c.43-.27.7-.73.71-1.23l.21-6.36a2.5 2.5 0 0 1 1.18-2.04l5.4-3.37c.43-.26.7-.72.71-1.22l.21-6.36a2.5 2.5 0 0 1 1.18-2.04l5.4-3.37c.43-.26.7-.72.71-1.22l.21-6.36a2.5 2.5 0 0 1 1.18-2.04l5.4-3.37c.43-.26.7-.72.71-1.22l.21-6.36a2.5 2.5 0 0 1 1.18-2.04l5.4-3.37c.43-.26.7-.72.71-1.22l.21-6.36a2.5 2.5 0 0 1 1.18-2.04l5.4-3.37c.43-.26.7-.72.71-1.22l.21-6.36a2.5 2.5 0 0 1 1.18-2.04l5.4-3.37c.43-.26.7-.72.71-1.22l.21-6.36a2.5 2.5 0 0 1 1.18-2.04l5.4-3.37c.43-.26.7-.72.71-1.22l.21-6.36a2.5 2.5 0 0 1 1.18-2.04l5.4-3.37c.43-.26.7-.72.71-1.22l.18-5.41h-4.3l-.08 2.44a2.5 2.5 0 0 1-1.17 2.04l-5.4 3.37a1.5 1.5 0 0 0-.71 1.22l-.22 6.36a2.5 2.5 0 0 1-1.17 2.04l-5.4 3.37a1.5 1.5 0 0 0-.71 1.22l-.22 6.36a2.5 2.5 0 0 1-1.17 2.04l-5.4 3.37a1.5 1.5 0 0 0-.71 1.22l-.22 6.36a2.5 2.5 0 0 1-1.17 2.04l-5.4 3.37a1.5 1.5 0 0 0-.71 1.22l-.22 6.37a2.5 2.5 0 0 1-1.17 2.03l-5.4 3.37a1.5 1.5 0 0 0-.71 1.22l-.22 6.37a2.5 2.5 0 0 1-1.17 2.03l-5.4 3.37a1.5 1.5 0 0 0-.71 1.22l-.22 6.37a2.5 2.5 0 0 1-1.17 2.03l-5.4 3.37a1.5 1.5 0 0 0-.71 1.22l-.22 6.37a2.5 2.5 0 0 1-1.17 2.03l-5.4 3.37a1.5 1.5 0 0 0-.71 1.22l-.22 6.37a2.5 2.5 0 0 1-1.17 2.03l-5.4 3.37a1.5 1.5 0 0 0-.67.92v12.87Zm0-14.56.14-.09 5.4-3.36c.42-.27.69-.73.7-1.23l.22-6.36a2.5 2.5 0 0 1 1.18-2.04l5.4-3.37c.42-.26.69-.72.7-1.22l.22-6.36a2.5 2.5 0 0 1 1.18-2.04l5.4-3.37c.42-.26.69-.72.7-1.22l.22-6.36a2.5 2.5 0 0 1 1.18-2.04l5.4-3.37c.42-.26.69-.72.7-1.22l.22-6.36a2.5 2.5 0 0 1 1.18-2.04l5.4-3.37c.42-.26.69-.72.7-1.22l.22-6.36a2.5 2.5 0 0 1 1.18-2.04l5.4-3.37c.42-.26.69-.72.7-1.22l.22-6.36a2.5 2.5 0 0 1 1.18-2.04l5.4-3.37c.42-.26.69-.72.7-1.22l.22-6.36a2.5 2.5 0 0 1 1.18-2.04l5.4-3.37c.42-.26.69-.72.7-1.22l.22-6.36a2.5 2.5 0 0 1 1.18-2.04l5.4-3.37c.42-.26.69-.72.7-1.22l.09-2.41h-4.36a2.5 2.5 0 0 1-1.1 1.48l-5.4 3.37a1.5 1.5 0 0 0-.7 1.22l-.22 6.36a2.5 2.5 0 0 1-1.18 2.04l-5.4 3.37a1.5 1.5 0 0 0-.7 1.22l-.22 6.36a2.5 2.5 0 0 1-1.18 2.04l-5.4 3.37a1.5 1.5 0 0 0-.7 1.22l-.22 6.36a2.5 2.5 0 0 1-1.18 2.04l-5.4 3.37a1.5 1.5 0 0 0-.7 1.22l-.22 6.37a2.5 2.5 0 0 1-1.18 2.03l-5.4 3.37a1.5 1.5 0 0 0-.7 1.22l-.22 6.37a2.5 2.5 0 0 1-1.18 2.03l-5.4 3.37a1.5 1.5 0 0 0-.7 1.22l-.22 6.37a2.5 2.5 0 0 1-1.18 2.03l-5.4 3.37a1.5 1.5 0 0 0-.7 1.22l-.22 6.37a2.5 2.5 0 0 1-1.18 2.03l-5.4 3.37a1.5 1.5 0 0 0-.7 1.22l-.22 6.37a2.5 2.5 0 0 1-1.18 2.03l-.87.55v5.06Zm0-6.24.34-.21c.43-.27.7-.73.7-1.23l.22-6.36a2.5 2.5 0 0 1 1.18-2.04l5.4-3.37c.43-.26.7-.72.7-1.22l.22-6.36a2.5 2.5 0 0 1 1.18-2.04l5.4-3.37c.43-.26.7-.72.7-1.22l.22-6.36a2.5 2.5 0 0 1 1.18-2.04l5.4-3.37c.43-.26.7-.72.7-1.22l.22-6.36a2.5 2.5 0 0 1 1.18-2.04l5.4-3.37c.43-.26.7-.72.7-1.22l.22-6.36a2.5 2.5 0 0 1 1.18-2.04l5.4-3.37c.43-.26.7-.72.7-1.22l.22-6.36a2.5 2.5 0 0 1 1.18-2.04l5.4-3.37c.43-.26.7-.72.7-1.22l.22-6.36a2.5 2.5 0 0 1 1.18-2.04l5.4-3.37c.43-.26.7-.72.7-1.22l.22-6.36a2.5 2.5 0 0 1 1.18-2.04l5.4-3.37c.25-.15.44-.37.57-.63h-7.67l-2.97 1.85a1.5 1.5 0 0 0-.7 1.22l-.22 6.36a2.5 2.5 0 0 1-1.17 2.04l-5.4 3.37a1.5 1.5 0 0 0-.71 1.22l-.22 6.36a2.5 2.5 0 0 1-1.17 2.04l-5.4 3.37a1.5 1.5 0 0 0-.71 1.22l-.22 6.36a2.5 2.5 0 0 1-1.17 2.04l-5.4 3.37a1.5 1.5 0 0 0-.71 1.22l-.22 6.37a2.5 2.5 0 0 1-1.17 2.03l-5.4 3.37a1.5 1.5 0 0 0-.71 1.22l-.22 6.37a2.5 2.5 0 0 1-1.17 2.03l-5.4 3.37a1.5 1.5 0 0 0-.71 1.22l-.22 6.37a2.5 2.5 0 0 1-1.17 2.03l-5.4 3.37a1.5 1.5 0 0 0-.71 1.22l-.22 6.37a2.5 2.5 0 0 1-1.17 2.03L8.5 99.9v13.38Zm0-14.56 2.65-1.64c.42-.27.69-.73.7-1.23l.22-6.36a2.5 2.5 0 0 1 1.17-2.04l5.4-3.37c.43-.26.7-.72.71-1.22l.22-6.36a2.5 2.5 0 0 1 1.17-2.04l5.4-3.37c.43-.26.7-.72.71-1.22l.22-6.36a2.5 2.5 0 0 1 1.17-2.04l5.4-3.37c.43-.26.7-.72.71-1.22l.22-6.36a2.5 2.5 0 0 1 1.17-2.04l5.4-3.37c.43-.26.7-.72.71-1.22l.22-6.36a2.5 2.5 0 0 1 1.17-2.04l5.4-3.37c.43-.26.7-.72.71-1.22l.22-6.36a2.5 2.5 0 0 1 1.17-2.04l5.4-3.37c.43-.26.7-.72.71-1.22l.22-6.36a2.5 2.5 0 0 1 1.17-2.04l1.6-1h-6.97v.07l-.21 6.36a2.5 2.5 0 0 1-1.18 2.04l-5.4 3.37a1.5 1.5 0 0 0-.71 1.22l-.21 6.36a2.5 2.5 0 0 1-1.18 2.04l-5.4 3.37a1.5 1.5 0 0 0-.71 1.22l-.21 6.36a2.5 2.5 0 0 1-1.18 2.04l-5.4 3.37a1.5 1.5 0 0 0-.71 1.22l-.21 6.37a2.5 2.5 0 0 1-1.18 2.03l-5.4 3.37a1.5 1.5 0 0 0-.71 1.22l-.21 6.37a2.5 2.5 0 0 1-1.18 2.03l-5.4 3.37a1.5 1.5 0 0 0-.71 1.22l-.21 6.37a2.5 2.5 0 0 1-1.18 2.03l-5.4 3.37a1.5 1.5 0 0 0-.08.05v13.37Zm0-14.55 4.95-3.09c.42-.26.69-.72.7-1.22l.22-6.36a2.5 2.5 0 0 1 1.18-2.04l5.4-3.37c.42-.26.69-.72.7-1.22l.22-6.36a2.5 2.5 0 0 1 1.18-2.04l5.4-3.37c.42-.26.69-.72.7-1.22l.22-6.36a2.5 2.5 0 0 1 1.18-2.04l5.4-3.37c.42-.26.69-.72.7-1.22l.22-6.36a2.5 2.5 0 0 1 1.18-2.04l5.4-3.37c.42-.26.69-.72.7-1.22l.22-6.36a2.5 2.5 0 0 1 1.18-2.04l5.4-3.37c.42-.26.69-.72.7-1.22l.22-6.36V8.5h-4.3l-.11 3.43a2.5 2.5 0 0 1-1.18 2.04l-5.4 3.37a1.5 1.5 0 0 0-.7 1.22l-.22 6.36a2.5 2.5 0 0 1-1.18 2.04l-5.4 3.37a1.5 1.5 0 0 0-.7 1.22l-.22 6.36a2.5 2.5 0 0 1-1.18 2.04l-5.4 3.37a1.5 1.5 0 0 0-.7 1.22l-.22 6.37a2.5 2.5 0 0 1-1.18 2.03l-5.4 3.37a1.5 1.5 0 0 0-.7 1.22l-.22 6.37a2.5 2.5 0 0 1-1.18 2.03l-5.4 3.37a1.5 1.5 0 0 0-.7 1.22l-.22 6.37a2.5 2.5 0 0 1-1.18 2.03l-.28.18v5.06Zm0-6.28c.28-.26.45-.63.46-1.03l.21-6.36a2.5 2.5 0 0 1 1.18-2.04l5.4-3.37c.43-.26.7-.72.71-1.22l.21-6.36a2.5 2.5 0 0 1 1.18-2.04l5.4-3.37c.43-.26.7-.72.71-1.22l.21-6.36a2.5 2.5 0 0 1 1.18-2.04l5.4-3.37c.43-.26.7-.72.71-1.22l.21-6.36a2.5 2.5 0 0 1 1.18-2.04l5.4-3.37c.43-.26.7-.72.71-1.22l.21-6.36a2.5 2.5 0 0 1 1.18-2.04l5.4-3.37c.43-.26.7-.72.71-1.22l.11-3.4h-4.3v.43a2.5 2.5 0 0 1-1.18 2.04l-5.4 3.37a1.5 1.5 0 0 0-.71 1.22l-.22 6.36a2.5 2.5 0 0 1-1.17 2.04l-5.4 3.37a1.5 1.5 0 0 0-.71 1.22l-.22 6.36a2.5 2.5 0 0 1-1.17 2.04l-5.4 3.37a1.5 1.5 0 0 0-.71 1.22l-.22 6.37a2.5 2.5 0 0 1-1.17 2.03l-5.4 3.37a1.5 1.5 0 0 0-.71 1.22l-.22 6.37a2.5 2.5 0 0 1-1.17 2.03L8.5 64.55v13.33Zm0-14.51 2.06-1.29c.42-.26.69-.72.7-1.22l.22-6.36a2.5 2.5 0 0 1 1.17-2.04l5.4-3.37c.43-.26.7-.72.71-1.22l.22-6.36a2.5 2.5 0 0 1 1.17-2.04l5.4-3.37c.43-.26.7-.72.71-1.22l.22-6.36a2.5 2.5 0 0 1 1.17-2.04l5.4-3.37c.43-.26.7-.72.71-1.22l.22-6.36a2.5 2.5 0 0 1 1.17-2.04l5.4-3.37c.43-.26.7-.72.71-1.22l.02-.4h-6.24l-4.55 2.84a1.5 1.5 0 0 0-.7 1.22l-.22 6.36a2.5 2.5 0 0 1-1.18 2.04L23 24.33a1.5 1.5 0 0 0-.7 1.22l-.22 6.36a2.5 2.5 0 0 1-1.18 2.04l-5.4 3.37a1.5 1.5 0 0 0-.7 1.22l-.22 6.37a2.5 2.5 0 0 1-1.18 2.03L8.5 50v13.38Zm0-14.56 4.36-2.72c.43-.26.7-.72.7-1.22l.22-6.36a2.5 2.5 0 0 1 1.18-2.04l5.4-3.37c.43-.26.7-.72.7-1.22l.22-6.36a2.5 2.5 0 0 1 1.18-2.04l5.4-3.37c.43-.26.7-.72.7-1.22l.22-6.36a2.5 2.5 0 0 1 1.18-2.04l3.2-1.99h-8.08c-.3.27-.48.65-.5 1.06l-.2 6.36a2.5 2.5 0 0 1-1.19 2.04l-5.4 3.37a1.5 1.5 0 0 0-.7 1.22l-.22 6.36a2.5 2.5 0 0 1-1.18 2.04l-5.4 3.37a1.5 1.5 0 0 0-.7 1.22l-.22 6.37a2.5 2.5 0 0 1-.87 1.8v5.1Zm0-10.76.09-2.54a2.5 2.5 0 0 1 1.17-2.04l5.4-3.37c.43-.26.7-.72.71-1.22l.22-6.36a2.5 2.5 0 0 1 1.17-2.04l5.4-3.37c.43-.26.7-.72.71-1.22l.22-6.36c0-.36.1-.71.25-1.03h-4.52l-.15 4.42A2.5 2.5 0 0 1 18 14.96l-5.4 3.37a1.5 1.5 0 0 0-.71 1.22l-.22 6.36a2.5 2.5 0 0 1-1.17 2.04l-2 1.25v8.85Zm0-10.03 1.47-.92c.42-.26.69-.72.7-1.22l.22-6.36a2.5 2.5 0 0 1 1.18-2.04l5.4-3.37c.42-.26.69-.72.7-1.22l.15-4.39h-4.3l-.04 1.42a2.5 2.5 0 0 1-1.18 2.04l-4.3 2.68v13.38Zm0-14.56 3.77-2.35c.43-.26.7-.72.7-1.22l.06-1.39H13A4.5 4.5 0 0 0 8.5 13v.46ZM88.43 8.5l-1.37.86a1.5 1.5 0 0 0-.71 1.22l-.21 6.36a2.5 2.5 0 0 1-1.18 2.04l-5.4 3.37a1.5 1.5 0 0 0-.71 1.22l-.21 6.36a2.5 2.5 0 0 1-1.18 2.04l-5.4 3.37a1.5 1.5 0 0 0-.71 1.22l-.21 6.36c-.01.23-.05.45-.12.67l6.1-10.55a10 10 0 0 1 5.86-4.6l.07-1.9a2.5 2.5 0 0 1 1.17-2.04l5.4-3.37c.43-.26.7-.72.71-1.22l.22-6.36a2.5 2.5 0 0 1 1.17-2.04l4.83-3.01h-8.12Zm9.8 0a2.5 2.5 0 0 1-.57.5l-5.4 3.36a1.5 1.5 0 0 0-.71 1.22l-.22 6.36a2.5 2.5 0 0 1-1.17 2.04l-5.4 3.37a1.5 1.5 0 0 0-.71 1.22l-.06 1.63a10 10 0 0 1 1.78-.16h3.04c.17-.21.37-.4.61-.54l5.4-3.37c.43-.26.7-.72.7-1.22l.22-6.36a2.5 2.5 0 0 1 1.18-2.04l5.4-3.37c.43-.26.7-.72.7-1.22l.06-1.42h-4.85Zm5.85 0-.05 1.45a2.5 2.5 0 0 1-1.18 2.04l-5.4 3.37a1.5 1.5 0 0 0-.7 1.22l-.22 6.36a2.5 2.5 0 0 1-1.18 2.04l-4.9 3.06H98L109.5 8.5h-5.42ZM69.96 44.96c.2-.12.37-.26.52-.43l-6.96 12.05c.07-.22.1-.44.12-.67l.21-6.36c.02-.5.28-.96.7-1.22l5.41-3.37Zm-7.5 13c.2-.13.37-.27.52-.44l-6.96 12.05c.07-.22.1-.44.12-.66l.21-6.37c.02-.5.28-.96.7-1.22l5.41-3.37Zm87.58 57.08c-.2.12-.36.26-.52.42l6.96-12.03c-.07.2-.1.43-.12.65l-.21 6.37c-.02.5-.28.96-.7 1.22l-5.41 3.37Zm7.5-13c-.2.13-.36.27-.52.43l6.96-12.04c-.07.22-.1.44-.12.66l-.21 6.37c-.02.5-.28.96-.7 1.22l-5.41 3.37Zm-15.52 24.42 24.23-41.96a9 9 0 0 0 0-9l-24.23-41.96a9 9 0 0 0-7.8-4.5H85.78a9 9 0 0 0-7.8 4.5L53.76 75.5a9 9 0 0 0 0 9l24.23 41.96a9 9 0 0 0 7.8 4.5h48.45a9 9 0 0 0 7.8-4.5Z" fill="#BAD6EB"/><path d="M158.27 77a6 6 0 0 1 0 6l-21.54 37.3a6 6 0 0 1-5.2 3H88.47a6 6 0 0 1-5.2-3L61.74 83a6 6 0 0 1 0-6l21.54-37.3a6 6 0 0 1 5.2-3h43.07a6 6 0 0 1 5.2 3L158.26 77Z" fill="#fff"/><circle cx="109.95" cy="80.19" r="5" fill="#00CA51"/><path fill-rule="evenodd" clip-rule="evenodd" d="M110.6 53.21c-.4-.28-.9-.28-1.3 0-1.9 1.35-5.85 4.75-5.85 9.62a21.5 21.5 0 0 0 1.23 7.09l.06.15.04.1.07.17.02.03v.01l1.01 1.76a.5.5 0 0 1-.86.5L104 70.88h-.01l-.02-.04-.28-.35c-.26-.3-.64-.74-1.15-1.24-1-1-2.48-2.28-4.37-3.37-4.22-2.43-9.13-.72-11.25.25-.45.2-.7.65-.66 1.14.22 2.32 1.2 7.43 5.4 9.87a21.51 21.51 0 0 0 7.2 2.54h2.09a.5.5 0 0 1 0 1h-2.03v.01h-.05a13.54 13.54 0 0 0-1.22.23l-.87.21a21.51 21.51 0 0 0-5.11 2.1c-4.22 2.44-5.19 7.56-5.4 9.87-.05.5.2.94.65 1.14 2.12.97 7.03 2.69 11.25.26a21.5 21.5 0 0 0 5.8-4.97l.02-.03v-.01h.01l1.02-1.76a.5.5 0 1 1 .86.5L104.87 90v.02l-.02.02a15.1 15.1 0 0 0-.67 2.04 21.5 21.5 0 0 0-.73 5.48c0 4.86 3.94 8.26 5.84 9.61.4.28.92.28 1.32 0 1.9-1.35 5.84-4.75 5.84-9.61a21.54 21.54 0 0 0-1.4-7.52l-.02-.02V90l-1.01-1.76a.5.5 0 0 1 .86-.5l1.02 1.76h.01l.02.04.17.22.11.13c.26.3.64.74 1.15 1.24 1 1 2.48 2.28 4.37 3.38 4.21 2.43 9.13.71 11.25-.26.45-.2.7-.65.66-1.14-.22-2.31-1.2-7.43-5.4-9.86a21.51 21.51 0 0 0-7.2-2.55h-2.09a.5.5 0 0 1 0-1h2.03v-.01h.05a8.9 8.9 0 0 0 .45-.07 21.51 21.51 0 0 0 6.76-2.48c4.2-2.43 5.18-7.54 5.4-9.86.04-.49-.21-.93-.66-1.14-2.12-.97-7.04-2.68-11.25-.25a21.5 21.5 0 0 0-5.8 4.96l-.02.04h-.01l-1.02 1.76a.5.5 0 1 1-.86-.5l1.01-1.76v-.01l.02-.03a13.72 13.72 0 0 0 .37-1.03 21.95 21.95 0 0 0 1.03-6.48c0-4.87-3.94-8.27-5.84-9.62Zm7.34 14.15 2.94-5.11a.5.5 0 0 0-.86-.5l-2.95 5.1a22 22 0 0 0 .38-4.02 10 10 0 0 0-.41-2.84 16.73 16.73 0 0 1 5.05-2.37c.6-.17 1.18.16 1.34.77.32 1.26.67 3.26.46 5.56-.89.22-1.78.56-2.66 1.06a22.32 22.32 0 0 0-3.3 2.35Zm6.97-3.6c3.54-.52 6.9.73 8.49 1.46a2.12 2.12 0 0 1 1.23 2.14c-.16 1.75-.76 5.28-2.97 8.09a17.78 17.78 0 0 1 4.6 3.25c.85.83.85 2.14 0 2.97-.94.93-2.5 2.24-4.6 3.26 2.21 2.8 2.8 6.34 2.97 8.08.09.91-.4 1.76-1.23 2.14-1.6.73-4.95 1.98-8.49 1.47.17 2.32-.19 4.33-.52 5.61a2.06 2.06 0 0 1-2.57 1.49 17.78 17.78 0 0 1-5.12-2.36c-1.33 3.32-4.09 5.6-5.51 6.61a2.1 2.1 0 0 1-2.48 0c-1.42-1.01-4.18-3.3-5.51-6.6a17.8 17.8 0 0 1-5.12 2.35 2.06 2.06 0 0 1-2.58-1.49 17.78 17.78 0 0 1-.51-5.6c-3.54.5-6.9-.75-8.49-1.48a2.12 2.12 0 0 1-1.23-2.14c.16-1.74.76-5.27 2.96-8.08a17.77 17.77 0 0 1-4.6-3.26 2.06 2.06 0 0 1 0-2.97c.95-.93 2.51-2.24 4.6-3.25-2.2-2.81-2.8-6.34-2.96-8.09-.09-.91.4-1.76 1.23-2.14 1.6-.73 4.95-1.98 8.49-1.47-.17-2.32.18-4.33.51-5.6a2.06 2.06 0 0 1 2.58-1.5 17.9 17.9 0 0 1 5.12 2.36c1.33-3.32 4.08-5.6 5.51-6.61a2.12 2.12 0 0 1 2.48 0c1.42 1.01 4.18 3.3 5.51 6.61 1.93-1.3 3.84-2 5.12-2.36a2.06 2.06 0 0 1 2.58 1.5c.32 1.27.68 3.28.51 5.6Zm-22.05-3.77a16.72 16.72 0 0 0-5.05-2.37c-.6-.17-1.18.16-1.34.77a16.72 16.72 0 0 0-.47 5.56c.9.22 1.8.56 2.67 1.06a22 22 0 0 1 3.3 2.35l-2.95-5.11a.5.5 0 0 1 .86-.5l2.95 5.1a22.09 22.09 0 0 1-.38-4.02c0-1.01.15-1.96.4-2.84ZM88.9 76.23a16.72 16.72 0 0 0-4.58 3.18 1.08 1.08 0 0 0 0 1.55c.94.91 2.5 2.21 4.58 3.18.64-.66 1.38-1.27 2.26-1.77a22.04 22.04 0 0 1 3.67-1.68h-5.89a.5.5 0 1 1 0-1h5.9c-1.13-.4-2.4-.94-3.68-1.69a9.8 9.8 0 0 1-2.26-1.77Zm7.1 20.2c-.21 2.3.14 4.29.46 5.55.16.6.74.94 1.34.78a16.7 16.7 0 0 0 5.05-2.38 9.98 9.98 0 0 1-.41-2.83c0-1.5.16-2.86.38-4.03l-2.95 5.1a.5.5 0 0 1-.86-.5l2.94-5.1a22 22 0 0 1-3.3 2.34c-.87.5-1.76.85-2.66 1.07Zm21.03 3.95a16.72 16.72 0 0 0 5.05 2.38c.6.16 1.18-.17 1.34-.78.32-1.26.67-3.26.46-5.55-.89-.22-1.78-.56-2.66-1.07a22.07 22.07 0 0 1-3.3-2.34l2.95 5.1a.5.5 0 0 1-.86.5l-2.95-5.1a22 22 0 0 1 .38 4.03c0 1-.15 1.95-.41 2.83Zm13.95-16.24a16.72 16.72 0 0 0 4.57-3.18c.45-.44.45-1.1 0-1.55a16.72 16.72 0 0 0-4.57-3.18c-.64.66-1.38 1.27-2.26 1.77a22 22 0 0 1-3.68 1.69h5.9a.5.5 0 0 1 0 1h-5.9c1.13.4 2.4.94 3.68 1.68a9.8 9.8 0 0 1 2.26 1.77Z" fill="#8CAEC8"/></svg>