<svg width="1440" height="680" fill="none" xmlns="http://www.w3.org/2000/svg"><path fill-rule="evenodd" clip-rule="evenodd" d="M578.13 365.54A217.93 217.93 0 0 1 416.5 437C295.83 437 198 339.17 198 218.5S295.83 0 416.5 0c70.35 0 132.93 33.25 172.9 84.88A161.79 161.79 0 0 1 665.5 66c34.15 0 65.83 10.53 91.99 28.53A226.97 226.97 0 0 1 868 66c46.25 0 89.27 13.77 125.21 37.43C1011.67 54.1 1059.24 19 1115 19c62.66 0 114.97 44.33 127.26 103.34C1308.81 131.71 1360 188.88 1360 258c0 75.66-61.34 137-137 137-23.78 0-46.14-6.06-65.63-16.72a136.96 136.96 0 0 1-121.23 69.7C994.46 493.49 934.56 522 868 522c-91.25 0-169.98-53.6-206.42-131.05a161.67 161.67 0 0 1-83.45-25.41Z" fill="url(#a)"/><path fill-rule="evenodd" clip-rule="evenodd" d="M254.82 378.48A133.39 133.39 0 0 1 213.5 385c-26.26 0-50.75-7.58-71.4-20.68A84.5 84.5 0 1 1 84.23 218c14.87-57.52 67.1-100 129.27-100 57.87 0 107.14 36.82 125.66 88.32A182.14 182.14 0 0 1 437 178c46.63 0 89.19 17.44 121.5 46.16a95.04 95.04 0 0 1 183.9-22.38A148.31 148.31 0 0 1 820 180c61.3 0 113.96 37.02 136.83 89.92A106.96 106.96 0 0 1 989 265c30.03 0 57.17 12.37 76.6 32.3 14.91-66.56 74.35-116.3 145.4-116.3 47.23 0 89.33 21.98 116.63 56.26a92 92 0 1 1 3.96 180.28A148.81 148.81 0 0 1 1211 479c-51.32 0-96.58-25.94-123.38-65.43A107.02 107.02 0 0 1 989 479a106.69 106.69 0 0 1-77.05-32.75A148.36 148.36 0 0 1 820 478c-27.77 0-53.76-7.6-76.01-20.82A106.72 106.72 0 0 1 665 492a106.65 106.65 0 0 1-74.95-30.64C557.35 511.14 501 544 437 544c-95.17 0-173.38-72.65-182.18-165.52Z" fill="url(#b)"/><path fill-rule="evenodd" clip-rule="evenodd" d="M586.91 558.15A148.58 148.58 0 0 1 531 569a148.76 148.76 0 0 1-118.51-58.68C405.42 605.21 326.19 680 229.5 680 128.16 680 46 597.84 46 496.5S128.16 313 229.5 313c13.62 0 26.89 1.48 39.66 4.3A88.91 88.91 0 0 1 343 278a88.95 88.95 0 0 1 76.38 43.3A148.64 148.64 0 0 1 531 271c52.93 0 99.42 27.6 125.85 69.2a122.13 122.13 0 0 1 46.65-9.2c67.65 0 122.5 54.85 122.5 122.5 0 60.68-44.12 111.05-102.03 120.8A106.5 106.5 0 0 1 665 592a106.7 106.7 0 0 1-78.09-33.85Zm562.72-45.34c-4.93.78-9.98 1.19-15.13 1.19a95.1 95.1 0 0 1-43.26-10.34C1077.74 547.3 1037.07 579 989 579c-59.1 0-107-47.9-107-107s47.9-107 107-107c21.11 0 40.79 6.11 57.36 16.66a95.53 95.53 0 0 1 166.86-17.25 92 92 0 1 1-63.59 148.4Z" fill="url(#c)"/><defs><linearGradient id="a" x1="779" y1="0" x2="779" y2="522" gradientUnits="userSpaceOnUse"><stop stop-color="#D3EDFF"/><stop offset=".5" stop-color="#fff"/></linearGradient><linearGradient id="b" x1="720" y1="118" x2="720" y2="544" gradientUnits="userSpaceOnUse"><stop stop-color="#E1F2FE"/><stop offset=".5" stop-color="#fff"/></linearGradient><linearGradient id="c" x1="680" y1="271" x2="680" y2="690" gradientUnits="userSpaceOnUse"><stop stop-color="#F2FAFF"/><stop offset=".5" stop-color="#fff"/></linearGradient></defs></svg>