<svg width="40" height="36" fill="none" xmlns="http://www.w3.org/2000/svg"><path fill-rule="evenodd" clip-rule="evenodd" d="M2 0a2 2 0 0 0-2 2v12c0 1.1.9 2 2 2h14a2 2 0 0 0 2-2V2a2 2 0 0 0-2-2H2Zm22 0a2 2 0 0 0-2 2v12c0 1.1.9 2 2 2h14a2 2 0 0 0 2-2V2a2 2 0 0 0-2-2H24Zm-2 22c0-1.1.9-2 2-2h14a2 2 0 0 1 2 2v12a2 2 0 0 1-2 2H24a2 2 0 0 1-2-2V22ZM2 20a2 2 0 0 0-2 2v12c0 1.1.9 2 2 2h14a2 2 0 0 0 2-2V22a2 2 0 0 0-2-2H2Z" fill="#EDF5F9"/><path fill-rule="evenodd" clip-rule="evenodd" d="M2 1h14a1 1 0 0 1 1 1v12a1 1 0 0 1-1 1H2a1 1 0 0 1-1-1V2a1 1 0 0 1 1-1ZM0 2C0 .9.9 0 2 0h14a2 2 0 0 1 2 2v12a2 2 0 0 1-2 2H2a2 2 0 0 1-2-2V2Zm24-1h14a1 1 0 0 1 1 1v12a1 1 0 0 1-1 1H24a1 1 0 0 1-1-1V2a1 1 0 0 1 1-1Zm-2 1c0-1.1.9-2 2-2h14a2 2 0 0 1 2 2v12a2 2 0 0 1-2 2H24a2 2 0 0 1-2-2V2Zm16 19H24a1 1 0 0 0-1 1v12a1 1 0 0 0 1 1h14a1 1 0 0 0 1-1V22a1 1 0 0 0-1-1Zm-14-1a2 2 0 0 0-2 2v12c0 1.1.9 2 2 2h14a2 2 0 0 0 2-2V22a2 2 0 0 0-2-2H24ZM2 21h14a1 1 0 0 1 1 1v12a1 1 0 0 1-1 1H2a1 1 0 0 1-1-1V22a1 1 0 0 1 1-1Zm-2 1c0-1.1.9-2 2-2h14a2 2 0 0 1 2 2v12a2 2 0 0 1-2 2H2a2 2 0 0 1-2-2V22Z" fill="#BAD6EB"/><path fill-rule="evenodd" clip-rule="evenodd" d="M30.93 9.76a.43.43 0 0 1-.33-.14.6.6 0 0 1-.11-.37c0-.23.02-.44.08-.64.05-.2.15-.4.27-.61.13-.2.29-.43.5-.65l.36-.46a1.42 1.42 0 0 0 .26-.79.69.69 0 0 0-.26-.57c-.18-.14-.43-.2-.75-.2-.3 0-.56.03-.8.11s-.48.18-.72.32a.8.8 0 0 1-.44.14.5.5 0 0 1-.3-.15.55.55 0 0 1-.16-.3.59.59 0 0 1 .06-.36.87.87 0 0 1 .31-.34c.3-.2.65-.35 1.04-.45.39-.11.75-.16 1.1-.16.46 0 .86.07 1.2.23.36.15.63.36.82.63.2.28.3.6.3.96a2.1 2.1 0 0 1-.42 1.26c-.15.2-.35.4-.6.64-.23.2-.41.4-.55.57-.14.16-.23.33-.3.48-.06.15-.1.32-.12.5 0 .1-.05.18-.13.25a.44.44 0 0 1-.31.1Zm-.02 2.3a.82.82 0 0 1-.6-.24.83.83 0 0 1-.23-.59c0-.23.07-.43.22-.57a.82.82 0 0 1 .6-.23c.26 0 .46.07.6.23.15.14.22.34.22.57 0 .24-.07.44-.22.6-.14.15-.34.22-.6.22ZM8.6 9.62c.08.1.19.14.33.14.13 0 .23-.04.3-.1a.35.35 0 0 0 .14-.26c.02-.17.06-.34.12-.5.07-.14.16-.3.3-.47.14-.17.32-.36.55-.57.25-.23.45-.45.6-.64a2.1 2.1 0 0 0 .42-1.25c0-.38-.1-.7-.3-.97a1.9 1.9 0 0 0-.81-.63 2.94 2.94 0 0 0-1.21-.23 4.05 4.05 0 0 0-2.14.61.87.87 0 0 0-.31.34.59.59 0 0 0-.06.37c.02.11.07.21.15.3A.5.5 0 0 0 7 5.9a.8.8 0 0 0 .44-.14c.24-.14.48-.24.72-.32.24-.08.5-.12.8-.12.32 0 .57.07.75.21.17.14.26.33.26.57a1.43 1.43 0 0 1-.26.78c-.09.14-.21.3-.36.47-.21.22-.37.44-.5.65-.12.2-.22.4-.27.61-.06.2-.08.41-.08.64 0 .15.04.28.1.37Zm-.3 2.2c.16.16.36.23.6.23.26 0 .46-.07.6-.23a.83.83 0 0 0 .22-.59.77.77 0 0 0-.81-.8.82.82 0 0 0-.6.23.77.77 0 0 0-.23.57c0 .24.07.44.22.6Zm.3 17.8c.08.1.19.14.33.14.13 0 .23-.04.3-.1a.35.35 0 0 0 .14-.26c.02-.17.06-.34.12-.5.07-.14.16-.3.3-.47.14-.17.32-.36.55-.57.25-.23.45-.45.6-.64a2.1 2.1 0 0 0 .42-1.25c0-.38-.1-.7-.3-.97a1.9 1.9 0 0 0-.81-.63 2.94 2.94 0 0 0-1.21-.23 4.05 4.05 0 0 0-2.14.61.87.87 0 0 0-.31.34.59.59 0 0 0-.06.36c.02.12.07.22.15.3a.5.5 0 0 0 .31.14.8.8 0 0 0 .44-.13c.24-.14.48-.24.72-.32.24-.08.5-.12.8-.12.32 0 .57.07.75.21.17.14.26.33.26.57a1.42 1.42 0 0 1-.26.78c-.09.14-.21.3-.36.47-.21.22-.37.44-.5.65-.12.2-.22.4-.27.61-.06.2-.08.41-.08.64 0 .15.04.28.1.37Zm-.3 2.2c.16.16.36.23.6.23.26 0 .46-.07.6-.23a.83.83 0 0 0 .22-.59.77.77 0 0 0-.81-.8.82.82 0 0 0-.6.23.77.77 0 0 0-.23.57c0 .24.07.44.22.6Zm22.3-2.2c.08.1.19.14.33.14.13 0 .23-.04.3-.1a.35.35 0 0 0 .14-.26c.02-.17.06-.34.12-.5.07-.14.16-.3.3-.47.14-.17.32-.36.55-.57.25-.23.45-.45.6-.64a2.1 2.1 0 0 0 .42-1.25c0-.38-.1-.7-.3-.97a1.9 1.9 0 0 0-.81-.63 2.94 2.94 0 0 0-1.21-.23 4.05 4.05 0 0 0-2.14.61.87.87 0 0 0-.31.34.59.59 0 0 0-.06.36c.02.12.07.22.15.3a.5.5 0 0 0 .31.14.8.8 0 0 0 .44-.13c.24-.14.48-.24.72-.32.24-.08.5-.12.8-.12.32 0 .57.07.75.21.17.14.26.33.26.57a1.42 1.42 0 0 1-.26.78c-.09.14-.21.3-.36.47-.21.22-.37.44-.5.65-.12.2-.22.4-.27.61-.06.2-.08.41-.08.64 0 .15.04.28.1.37Zm-.3 2.2c.16.16.36.23.6.23.26 0 .46-.07.6-.23a.83.83 0 0 0 .22-.59.77.77 0 0 0-.81-.8.82.82 0 0 0-.6.23.77.77 0 0 0-.23.57c0 .24.07.44.22.6Z" fill="#8CAEC8"/></svg>