<svg width="24" height="24" fill="none" xmlns="http://www.w3.org/2000/svg"><mask id="a" fill="#fff"><path fill-rule="evenodd" clip-rule="evenodd" d="M12 23c2.08 0 11.5-3.92 11.5-12 .52-3.18.1-7.14-1.85-10.19a12.04 12.04 0 0 0-6.27 5.6 14.03 14.03 0 0 0-6.76 0A12.04 12.04 0 0 0 2.35.81C.39 3.86-.02 7.82.5 11c0 8.08 9.42 12 11.5 12Z"/></mask><path d="m23.5 11-.99-.16-.01.08V11h1ZM21.65.81l.84-.54-.44-.69-.76.3.36.93Zm-6.27 5.6-.24.97.76.19.36-.7-.88-.46Zm-6.76 0-.88.47.36.69.76-.19-.24-.97ZM2.35.81l.36-.93-.76-.3-.44.7.84.53ZM.5 11h1v-.08l-.01-.08L.5 11Zm22 0c0 3.6-2.1 6.35-4.58 8.23a17.01 17.01 0 0 1-3.64 2.1A7.5 7.5 0 0 1 12 22v2c.73 0 1.86-.31 3.06-.82 1.24-.52 2.7-1.3 4.07-2.36 2.76-2.1 5.37-5.35 5.37-9.82h-2Zm-1.69-9.65c1.8 2.8 2.2 6.49 1.7 9.49l1.98.32c.55-3.35.13-7.58-2-10.89l-1.68 1.08Zm.48-1.47a13.04 13.04 0 0 0-6.8 6.06l1.77.94a11.04 11.04 0 0 1 5.75-5.14L21.3-.12Zm-5.67 5.56A15.03 15.03 0 0 0 12 5v2c1.08 0 2.13.13 3.14.38l.48-1.94ZM12 5c-1.25 0-2.46.15-3.62.44l.48 1.94C9.86 7.13 10.92 7 12 7V5Zm-2.5.94A13.04 13.04 0 0 0 2.72-.12l-.73 1.86c2.48.97 4.53 2.8 5.76 5.14l1.77-.94Zm-8.01 4.9c-.5-3-.1-6.7 1.7-9.49L1.5.27c-2.13 3.31-2.55 7.54-2 10.9l1.98-.33ZM12 22a7.5 7.5 0 0 1-2.28-.66c-1.11-.47-2.4-1.17-3.64-2.1C3.6 17.33 1.5 14.6 1.5 11h-2c0 4.47 2.61 7.73 5.37 9.82a19.01 19.01 0 0 0 4.07 2.36c1.2.5 2.33.82 3.06.82v-2Z" fill="#333" mask="url(#a)"/><path d="m5 8-.1-.49L5 8ZM3.42 1.71a.5.5 0 0 0-.82.58l.82-.58ZM1.5 11c0-.56.26-1.04.85-1.47.6-.44 1.53-.8 2.75-1.04l-.2-.98c-1.29.26-2.37.65-3.14 1.21A2.77 2.77 0 0 0 .5 11h1Zm3.6-2.51c.32-.06.59-.24.76-.51.15-.26.2-.56.18-.84a5.46 5.46 0 0 0-.53-1.84C4.94 4 4.01 2.56 3.42 1.71l-.82.58c.58.82 1.46 2.2 2 3.42.27.61.43 1.12.44 1.47 0 .17-.02.25-.04.28 0 0-.02.03-.1.05l.2.98ZM19 8l.1-.49L19 8Zm1.58-6.29a.5.5 0 0 1 .82.58l-.82-.58ZM22.5 11c0-.56-.26-1.04-.85-1.47-.6-.44-1.53-.8-2.75-1.04l.2-.98c1.29.26 2.37.65 3.14 1.21A2.77 2.77 0 0 1 23.5 11h-1Zm-3.6-2.51c-.32-.06-.59-.24-.76-.51-.15-.26-.2-.56-.18-.84.02-.55.25-1.2.53-1.84.57-1.3 1.5-2.74 2.09-3.59l.82.58c-.58.82-1.46 2.2-2 3.42a4.56 4.56 0 0 0-.44 1.47c0 .17.02.25.04.28 0 0 .02.03.1.05l-.2.98Z" fill="#333"/><path d="M6.98 16.88c.9.36 2.05.55 3.51.4a6.79 6.79 0 0 0-.89-3.33 4.39 4.39 0 0 0-2.05-1.77 5.83 5.83 0 0 0-4.03-.14c.08.65.39 1.97 1.26 3.13a5.15 5.15 0 0 0 2.2 1.7ZM17.02 16.88c-.9.36-2.05.55-3.51.4.06-1.46.4-2.54.89-3.33a4.39 4.39 0 0 1 2.05-1.77 5.83 5.83 0 0 1 4.03-.14 6.87 6.87 0 0 1-1.25 3.13 5.15 5.15 0 0 1-2.21 1.7Z" stroke="#333"/><path d="M8.26 14.14a3.39 3.39 0 0 1-1.3 1.72s-.54-1.07-.25-2.14C7 12.66 8 12 8 12s.54 1.07.26 2.14ZM17.29 13.72c.29 1.07-.25 2.14-.25 2.14s-1-.65-1.3-1.72C15.46 13.07 16 12 16 12s1 .66 1.29 1.72Z" fill="#333"/><path d="m10.5 19.5 1.5 1m1.5-1-1.5 1m0 0V22" stroke="#333" stroke-linecap="round"/></svg>