<svg width="376" height="130" fill="none" xmlns="http://www.w3.org/2000/svg"><path d="m260 50.17 112.03 15.74a4.01 4.01 0 0 1 2.5 6.56l-18.05 21.5a4.02 4.02 0 0 0-.6 4.22l11.43 25.64a4.01 4.01 0 0 1-4.22 5.61l-108.06-15.18a4 4 0 0 1-3.4-4.53l3.9-27.8L260 50.18Z" fill="#00B448"/><path d="M307.2 80.56a4 4 0 0 1 4.1 4.64l-2.8 17.52a4.01 4.01 0 0 1-3.28 3.33l-48.66 8.24c-.4.07-.82.07-1.22.02l-.25-.04a4 4 0 0 1-3.4-4.59l3.75-24c.3-1.9 1.9-3.33 3.81-3.4l47.95-1.72Z" fill="#009A3E"/><path d="M116 50.17 3.97 65.91a4.01 4.01 0 0 0-2.5 6.56l18.05 21.5a4.02 4.02 0 0 1 .6 4.22L8.69 123.83a4.01 4.01 0 0 0 4.22 5.61l108.06-15.18a4 4 0 0 0 3.4-4.53l-3.9-27.8L116 50.18Z" fill="#00B448"/><path d="M68.8 80.56a4 4 0 0 0-4.1 4.64l2.8 17.52a4.01 4.01 0 0 0 3.28 3.33l48.66 8.24c.4.07.82.07 1.23.02l.24-.04a4 4 0 0 0 3.4-4.59l-3.75-24a4.01 4.01 0 0 0-3.81-3.4L68.8 80.56Z" fill="#009A3E"/><path d="M58.05 46.16a3.97 3.97 0 0 1 3.43-4.6C78.33 39.55 143.88 32 188 32c44.13 0 109.67 7.54 126.52 9.57a3.97 3.97 0 0 1 3.43 4.6l-8.8 56.4a4 4 0 0 1-4.47 3.4C288.94 103.9 228.64 96.4 188 96.4s-100.94 7.5-116.68 9.56a4 4 0 0 1-4.47-3.4l-8.8-56.4Z" fill="#00CA51"/><path d="M181.42 3.48a7.96 7.96 0 0 1 13.16 0l9.4 13.78a7.98 7.98 0 0 0 4.34 3.16l15.95 4.72a8.03 8.03 0 0 1 4.07 12.58L218.2 50.95a8.03 8.03 0 0 0-1.66 5.11l.46 16.7a7.99 7.99 0 0 1-10.65 7.77l-15.68-5.6a7.95 7.95 0 0 0-5.34 0l-15.68 5.6A7.99 7.99 0 0 1 159 72.76l.46-16.7a8.03 8.03 0 0 0-1.66-5.1l-10.14-13.24a8.03 8.03 0 0 1 4.07-12.58l15.96-4.72a7.98 7.98 0 0 0 4.32-3.16l9.4-13.78Z" fill="#FFBF20"/><path d="M181.3 3.5a7.9 7.9 0 0 1 13.11 0l9.38 13.82a7.96 7.96 0 0 0 4.3 3.17L224 25.22C182.88 20.5 164 36.53 158.96 73l.45-16.75a8.1 8.1 0 0 0-1.65-5.13l-10.1-13.28a8.07 8.07 0 0 1 4.05-12.62l15.9-4.73a7.96 7.96 0 0 0 4.31-3.17L181.3 3.5Z" fill="#FCCC56"/><path d="M156.57 33.06a4.02 4.02 0 0 1 2.83-4.93l9.64-2.6a4.02 4.02 0 0 1 2.07 7.77l-9.64 2.6a4 4 0 0 1-4.9-2.84Z" fill="#fff"/><path d="M101.7 31.2a6 6 0 0 1 9.58-2.57l9.74 8.36a6 6 0 0 0 3.76 1.45l12.83.32a6.02 6.02 0 0 1 5.4 8.33l-4.93 11.88a6.03 6.03 0 0 0-.21 4.03l3.66 12.32a6.02 6.02 0 0 1-6.24 7.72l-12.79-1.02a6 6 0 0 0-3.89 1.04l-10.56 7.3a6 6 0 0 1-9.25-3.56l-2.98-12.51a6.02 6.02 0 0 0-2.2-3.38l-10.18-7.82a6.03 6.03 0 0 1 .52-9.92l10.95-6.7a6.02 6.02 0 0 0 2.53-3.14l4.27-12.13Z" fill="#FFBF20"/><path d="M101.67 31.3a6.08 6.08 0 0 1 9.7-2.6l9.63 8.28a6.08 6.08 0 0 0 3.8 1.46l12.69.32c-31.32 4.69-42.14 20.2-38.72 47.93l-2.94-12.37a6.1 6.1 0 0 0-2.22-3.43l-10.08-7.73a6.1 6.1 0 0 1 .53-10.05l10.82-6.63a6.1 6.1 0 0 0 2.57-3.18l4.22-12Z" fill="#FCCC56"/><path d="M89.18 57.88a3.05 3.05 0 0 1 1.12-4.17l6.58-3.8a3.06 3.06 0 0 1 3.04 5.28l-6.58 3.8a3.04 3.04 0 0 1-4.16-1.1Z" fill="#fff"/><path d="M264.8 28.63a6 6 0 0 1 9.57 2.57l4.27 12.13a6.02 6.02 0 0 0 2.53 3.13l10.95 6.71a6.03 6.03 0 0 1 .52 9.92l-10.19 7.82a6.02 6.02 0 0 0-2.19 3.38l-2.98 12.5a6 6 0 0 1-9.25 3.57l-10.56-7.3a6 6 0 0 0-3.9-1.04l-12.78 1.02a6.02 6.02 0 0 1-6.24-7.72L238.21 63c.4-1.33.32-2.76-.2-4.03l-4.93-11.88a6.02 6.02 0 0 1 5.4-8.33l12.82-.32a6 6 0 0 0 3.76-1.45l9.74-8.36Z" fill="#FFBF20"/><path d="M264.71 28.7a6.08 6.08 0 0 1 9.7 2.6l4.22 12a6.1 6.1 0 0 0 2.57 3.18l10.82 6.63c-29.46-11.64-46.56-3.63-57.43 22.1l3.62-12.19c.4-1.34.32-2.78-.22-4.08l-4.87-11.74a6.1 6.1 0 0 1 5.47-8.44l12.68-.32a6.08 6.08 0 0 0 3.81-1.46l9.63-8.28Z" fill="#FCCC56"/><path d="M241 45c0-1.66 1.3-3 2.89-3h7.22c1.6 0 2.89 1.34 2.89 3s-1.3 3-2.89 3h-7.22a2.95 2.95 0 0 1-2.89-3Z" fill="#fff"/></svg>