<svg width="40" height="36" fill="none" xmlns="http://www.w3.org/2000/svg"><path fill-rule="evenodd" clip-rule="evenodd" d="M2 0a2 2 0 0 0-2 2v12c0 1.1.9 2 2 2h14a2 2 0 0 0 2-2V2a2 2 0 0 0-2-2H2Zm22 20a2 2 0 0 0-2 2v12c0 1.1.9 2 2 2h14a2 2 0 0 0 2-2V22a2 2 0 0 0-2-2H24Z" fill="#EDF5F9"/><path fill-rule="evenodd" clip-rule="evenodd" d="M2 1h14a1 1 0 0 1 1 1v12a1 1 0 0 1-1 1H2a1 1 0 0 1-1-1V2a1 1 0 0 1 1-1ZM0 2C0 .9.9 0 2 0h14a2 2 0 0 1 2 2v12a2 2 0 0 1-2 2H2a2 2 0 0 1-2-2V2Zm24 19h14a1 1 0 0 1 1 1v12a1 1 0 0 1-1 1H24a1 1 0 0 1-1-1V22a1 1 0 0 1 1-1Zm-2 1c0-1.1.9-2 2-2h14a2 2 0 0 1 2 2v12a2 2 0 0 1-2 2H24a2 2 0 0 1-2-2V22Z" fill="#BAD6EB"/><path fill-rule="evenodd" clip-rule="evenodd" d="M24 0a2 2 0 0 0-2 2v12c0 1.1.9 2 2 2h14a2 2 0 0 0 2-2V2a2 2 0 0 0-2-2H24ZM2 20a2 2 0 0 0-2 2v12c0 1.1.9 2 2 2h14a2 2 0 0 0 2-2V22a2 2 0 0 0-2-2H2Z" fill="#00CA51"/><path d="M8.93 9.76a.43.43 0 0 1-.33-.14.6.6 0 0 1-.11-.37c0-.23.02-.44.08-.64.05-.2.15-.4.27-.61.13-.2.29-.43.5-.65l.36-.46a1.43 1.43 0 0 0 .26-.79.69.69 0 0 0-.26-.57c-.18-.14-.43-.2-.75-.2-.3 0-.56.03-.8.11s-.48.18-.72.32A.8.8 0 0 1 7 5.9a.5.5 0 0 1-.3-.14.55.55 0 0 1-.16-.3.59.59 0 0 1 .06-.36.87.87 0 0 1 .31-.34c.3-.2.65-.35 1.04-.45.39-.11.75-.17 1.1-.17.46 0 .86.08 1.2.24.36.15.63.36.82.63.2.28.3.6.3.96a2.1 2.1 0 0 1-.42 1.25c-.15.2-.35.42-.6.65-.23.2-.41.4-.55.57-.14.16-.23.33-.3.48-.06.15-.1.32-.12.5 0 .1-.05.18-.13.25a.44.44 0 0 1-.31.1Zm-.02 2.3a.82.82 0 0 1-.6-.24.83.83 0 0 1-.23-.59c0-.23.07-.43.22-.57a.82.82 0 0 1 .6-.23c.26 0 .46.07.6.23.15.14.22.34.22.57 0 .24-.07.44-.22.6-.14.15-.34.22-.6.22ZM30.93 29.76a.43.43 0 0 1-.33-.14.6.6 0 0 1-.11-.37c0-.23.02-.44.08-.64.05-.2.15-.4.27-.61.13-.2.29-.43.5-.65l.36-.46a1.43 1.43 0 0 0 .26-.79.69.69 0 0 0-.26-.57c-.18-.14-.43-.2-.75-.2-.3 0-.56.03-.8.11s-.48.18-.72.32a.8.8 0 0 1-.44.13.5.5 0 0 1-.3-.14.55.55 0 0 1-.16-.3.58.58 0 0 1 .06-.36.87.87 0 0 1 .31-.34c.3-.2.65-.35 1.04-.45.39-.11.75-.16 1.1-.16.46 0 .86.07 1.2.23.36.15.63.36.82.63.2.28.3.6.3.96a2.1 2.1 0 0 1-.42 1.25c-.15.2-.35.42-.6.65-.23.2-.41.4-.55.57-.14.16-.23.32-.3.48-.06.15-.1.32-.12.5 0 .1-.05.18-.13.25a.44.44 0 0 1-.31.1Zm-.02 2.3a.82.82 0 0 1-.6-.24.83.83 0 0 1-.23-.59c0-.23.07-.43.22-.57a.82.82 0 0 1 .6-.23c.26 0 .46.07.6.23.15.14.22.34.22.57 0 .24-.07.44-.22.6-.14.15-.34.23-.6.23Z" fill="#8CAEC8"/><path fill-rule="evenodd" clip-rule="evenodd" d="M36.7 5.7a1 1 0 0 0-1.4-1.4L30 9.58l-2.3-2.3a1 1 0 1 0-1.4 1.42l3 3a1 1 0 0 0 1.4 0l6-6Zm-22 20a1 1 0 0 0-1.4-1.4L8 29.58l-2.3-2.3a1 1 0 0 0-1.4 1.42l3 3a1 1 0 0 0 1.4 0l6-6Z" fill="#fff"/></svg>