<svg width="220" height="160" fill="none" xmlns="http://www.w3.org/2000/svg"><rect x=".5" y=".5" width="219" height="159" rx="9.5" fill="#fff" stroke="#BAD6EB"/><path d="m198.5 1-93 158h-84l93-158h84Z" fill="#EDF5F9"/><rect x="8" y="8" width="204" height="144" rx="5" fill="#EDF5F9"/><path fill-rule="evenodd" clip-rule="evenodd" d="M114.93 1.25a.5.5 0 1 0-.86-.5l-3.98 6.75H13A5.5 5.5 0 0 0 7.5 13v134a5.5 5.5 0 0 0 5.5 5.5h11.75l-3.68 6.25a.5.5 0 0 0 .86.5L59.2 95.94l.91 1.57-36.04 61.24a.5.5 0 0 0 .86.5L60.7 98.51l.9 1.58-34.52 58.66a.5.5 0 0 0 .86.5l34.24-58.17.91 1.58-33.01 56.09a.5.5 0 0 0 .86.5l32.73-55.6.9 1.58-31.5 53.52a.5.5 0 0 0 .87.5l31.21-53.02.91 1.58-29.98 50.94a.5.5 0 0 0 .86.5l29.7-50.45.9 1.58-28.46 48.37a.5.5 0 0 0 .86.5l28.18-47.88.91 1.58-26.95 45.8a.5.5 0 0 0 .86.5l26.67-45.3.91 1.57-25.44 43.23a.5.5 0 0 0 .86.5l25.15-42.73.92 1.58-23.93 40.65a.5.5 0 0 0 .86.5l23.64-40.16.91 1.58-22.41 38.08a.5.5 0 0 0 .86.5l22.13-37.58.9 1.57-20.9 35.5a.5.5 0 0 0 .87.51l20.61-35.01.91 1.58-19.38 32.93a.5.5 0 0 0 .86.5l19.1-32.44.08.15c.27.46.57.9.9 1.3l-17.94 30.49a.5.5 0 0 0 .86.5l17.78-30.2c.38.37.8.72 1.23 1.03l-16.87 28.67a.5.5 0 0 0 .86.5l16.85-28.62c.46.26.94.49 1.44.68l-16.15 27.44a.5.5 0 0 0 .86.5l16.26-27.63c.55.15 1.1.25 1.67.3l-15.8 26.83a.5.5 0 0 0 .87.5L86 131.96h1.83l-15.76 26.79a.5.5 0 0 0 .86.5L89 131.96h1.83l-15.76 26.79a.5.5 0 0 0 .86.5L92 131.96h1.83l-15.76 26.79a.5.5 0 0 0 .86.5L95 131.96h1.83l-15.76 26.79a.5.5 0 0 0 .86.5L98 131.96h1.83l-15.76 26.79a.5.5 0 0 0 .86.5L101 131.96h1.84l-15.76 26.79a.5.5 0 0 0 .86.5L104 131.96h1.84l-15.76 26.79a.5.5 0 0 0 .86.5L107 131.96h1.84l-15.76 26.79a.5.5 0 0 0 .86.5L110 131.96h1.84l-15.76 26.79a.5.5 0 0 0 .86.5L113 131.96h1.84l-15.76 26.79a.5.5 0 0 0 .86.5L116 131.96h1.84l-15.76 26.79a.5.5 0 0 0 .86.5L119 131.96h1.84l-15.76 26.79a.5.5 0 0 0 .86.5l3.98-6.75H207a5.5 5.5 0 0 0 5.5-5.5V13a5.5 5.5 0 0 0-5.5-5.5h-11.75l3.68-6.25a.5.5 0 1 0-.86-.5L160.8 64.06l-.91-1.57 36.04-61.24a.5.5 0 1 0-.86-.5L159.3 61.49l-.9-1.58 34.52-58.66a.5.5 0 1 0-.86-.5l-34.24 58.17-.91-1.58 33.01-56.09a.5.5 0 1 0-.86-.5l-32.73 55.6-.9-1.58 31.5-53.52a.5.5 0 1 0-.87-.5l-31.21 53.02-.91-1.58 29.98-50.94a.5.5 0 1 0-.86-.5l-29.7 50.45-.9-1.58 28.46-48.37a.5.5 0 1 0-.86-.5l-28.18 47.88-.91-1.58 26.95-45.8a.5.5 0 1 0-.86-.5l-26.67 45.3-.91-1.57 25.44-43.23a.5.5 0 1 0-.86-.5l-25.15 42.73-.91-1.58 23.92-40.65a.5.5 0 1 0-.86-.5L147.43 40.9l-.91-1.58 22.41-38.08a.5.5 0 1 0-.86-.5l-22.13 37.58-.9-1.57 20.9-35.5a.5.5 0 1 0-.87-.51l-20.61 35.01-.91-1.58 19.38-32.93a.5.5 0 1 0-.86-.5l-19.1 32.44-.08-.15c-.27-.46-.57-.9-.9-1.3l17.94-30.49a.5.5 0 1 0-.86-.5l-17.78 30.2c-.38-.37-.8-.72-1.23-1.03l16.87-28.67a.5.5 0 1 0-.86-.5l-16.85 28.62c-.46-.26-.94-.49-1.44-.68l16.15-27.44a.5.5 0 1 0-.86-.5L136.8 28.38a10 10 0 0 0-1.67-.3l15.8-26.83a.5.5 0 1 0-.87-.5L134 28.04h-1.84l15.76-26.79a.5.5 0 1 0-.86-.5L131 28.04h-1.84l15.76-26.79a.5.5 0 1 0-.86-.5L128 28.04h-1.84l15.76-26.79a.5.5 0 1 0-.86-.5L125 28.04h-1.84l15.76-26.79a.5.5 0 1 0-.86-.5L122 28.04h-1.84l15.76-26.79a.5.5 0 1 0-.86-.5L119 28.04h-1.84l15.76-26.79a.5.5 0 1 0-.86-.5L116 28.04h-1.84l15.76-26.79a.5.5 0 1 0-.86-.5L113 28.04h-1.84l15.76-26.79a.5.5 0 1 0-.86-.5L110 28.04h-1.84l15.76-26.79a.5.5 0 1 0-.86-.5L107 28.04h-1.84l15.76-26.79a.5.5 0 1 0-.86-.5L104 28.04h-1.84l15.76-26.79a.5.5 0 1 0-.86-.5L101 28.04h-1.84l15.76-26.79Zm79.74 7.25-33.3 56.56 2.34 4.04 3.84-2.4c.43-.26.69-.72.7-1.22l.22-6.37a2.5 2.5 0 0 1 1.18-2.03l5.4-3.37c.43-.27.69-.72.7-1.22l.22-6.37a2.5 2.5 0 0 1 1.18-2.03l5.4-3.37c.43-.27.69-.72.7-1.22l.22-6.37a2.5 2.5 0 0 1 1.18-2.03l5.4-3.37c.43-.27.69-.72.7-1.22l.22-6.37a2.5 2.5 0 0 1 1.18-2.03l5.4-3.37c.43-.27.69-.72.7-1.22l.18-5.02H194.67Zm4.76 0-.17 5.05a2.5 2.5 0 0 1-1.18 2.04l-5.4 3.36a1.5 1.5 0 0 0-.7 1.23l-.22 6.36a2.5 2.5 0 0 1-1.18 2.04l-5.4 3.36a1.5 1.5 0 0 0-.7 1.23l-.22 6.36a2.5 2.5 0 0 1-1.18 2.04l-5.4 3.36a1.5 1.5 0 0 0-.7 1.23l-.22 6.36a2.5 2.5 0 0 1-1.18 2.04l-5.4 3.37a1.5 1.5 0 0 0-.7 1.22l-.22 6.36a2.5 2.5 0 0 1-1.18 2.04l-3.88 2.41 2.3 3.98c.2-.35.49-.65.84-.87l5.4-3.37c.43-.26.7-.72.71-1.22l.22-6.37a2.5 2.5 0 0 1 1.17-2.03l5.4-3.37c.43-.27.7-.72.71-1.22l.22-6.37a2.5 2.5 0 0 1 1.17-2.03l5.4-3.37c.43-.27.7-.72.71-1.22l.22-6.37a2.5 2.5 0 0 1 1.17-2.03l5.4-3.37c.43-.27.7-.72.71-1.22l.22-6.37a2.5 2.5 0 0 1 1.17-2.03l5.4-3.37c.43-.27.7-.72.71-1.22l.22-6.37a2.5 2.5 0 0 1 .7-1.65h-4.94Zm6.69 0-.75.46a1.5 1.5 0 0 0-.7 1.23l-.22 6.36a2.5 2.5 0 0 1-1.17 2.04l-5.4 3.36a1.5 1.5 0 0 0-.71 1.23l-.22 6.36a2.5 2.5 0 0 1-1.17 2.04l-5.4 3.36a1.5 1.5 0 0 0-.71 1.23l-.22 6.36a2.5 2.5 0 0 1-1.17 2.04l-5.4 3.36a1.5 1.5 0 0 0-.71 1.23l-.22 6.36a2.5 2.5 0 0 1-1.17 2.04l-5.4 3.37a1.5 1.5 0 0 0-.71 1.22l-.22 6.36a2.5 2.5 0 0 1-1.17 2.04l-5.4 3.37c-.42.25-.68.7-.71 1.18a10 10 0 0 1-.06 9.9l-2.59 4.48c.16-.16.33-.3.52-.42l5.4-3.37c.43-.26.7-.72.71-1.22l.21-6.37a2.5 2.5 0 0 1 1.18-2.03l5.4-3.37c.43-.26.7-.72.71-1.22l.21-6.37a2.5 2.5 0 0 1 1.18-2.03l5.4-3.37c.43-.27.7-.72.71-1.22l.21-6.37a2.5 2.5 0 0 1 1.18-2.03l5.4-3.37c.43-.27.7-.72.71-1.22l.21-6.37a2.5 2.5 0 0 1 1.18-2.03l5.4-3.37c.43-.27.7-.72.71-1.22l.21-6.37a2.5 2.5 0 0 1 1.18-2.03l5.4-3.37c.43-.27.7-.72.71-1.22l.21-6.37a2.5 2.5 0 0 1 1.18-2.04l.78-.48A4.5 4.5 0 0 0 207 8.5h-.88Zm5.14 3.04-.7.42a1.5 1.5 0 0 0-.7 1.23l-.21 6.36a2.5 2.5 0 0 1-1.18 2.04l-5.4 3.36a1.5 1.5 0 0 0-.7 1.23l-.22 6.36a2.5 2.5 0 0 1-1.18 2.04l-5.4 3.36a1.5 1.5 0 0 0-.7 1.23l-.22 6.36a2.5 2.5 0 0 1-1.18 2.04l-5.4 3.36a1.5 1.5 0 0 0-.7 1.23l-.22 6.36a2.5 2.5 0 0 1-1.18 2.04l-5.4 3.37a1.5 1.5 0 0 0-.7 1.22l-.22 6.36a2.5 2.5 0 0 1-1.18 2.04l-5.4 3.37a1.5 1.5 0 0 0-.7 1.22l-.22 6.36a2.5 2.5 0 0 1-1.18 2.04l-5.4 3.37a1.5 1.5 0 0 0-.7 1.22l-.22 6.36a2.5 2.5 0 0 1-1.18 2.04l-5.4 3.37a1.5 1.5 0 0 0-.7 1.22l-.22 6.36a2.5 2.5 0 0 1-1.18 2.04l-5.4 3.37a1.5 1.5 0 0 0-.7 1.22l-.22 6.36a2.5 2.5 0 0 1-1.18 2.04l-5.4 3.37a1.5 1.5 0 0 0-.7 1.22l-.22 6.36a2.5 2.5 0 0 1-1.18 2.04l-5.4 3.37a1.5 1.5 0 0 0-.7 1.22l-.22 6.36a2.5 2.5 0 0 1-1.18 2.04l-.01.01h5.42l.18-5.44a2.5 2.5 0 0 1 1.18-2.04l5.4-3.37c.42-.26.69-.72.7-1.22l.22-6.36a2.5 2.5 0 0 1 1.18-2.04l5.4-3.37c.42-.26.69-.72.7-1.22l.22-6.36a2.5 2.5 0 0 1 1.18-2.04l5.4-3.37c.42-.26.69-.72.7-1.22l.22-6.37a2.5 2.5 0 0 1 1.18-2.03l5.4-3.37c.42-.26.69-.72.7-1.22l.22-6.37a2.5 2.5 0 0 1 1.18-2.03l5.4-3.37c.42-.26.69-.72.7-1.22l.22-6.37a2.5 2.5 0 0 1 1.18-2.03l5.4-3.37c.42-.26.69-.72.7-1.22l.22-6.37a2.5 2.5 0 0 1 1.18-2.03l5.4-3.37c.42-.27.69-.72.7-1.22l.22-6.37a2.5 2.5 0 0 1 1.18-2.03l5.4-3.37c.42-.27.69-.72.7-1.22l.22-6.37a2.5 2.5 0 0 1 1.18-2.03l5.4-3.37c.42-.27.69-.72.7-1.22l.22-6.37a2.5 2.5 0 0 1 1.18-2.03l3.76-2.35V13c0-.51-.09-1-.24-1.46Zm.24 14.4-3.24 2.01a1.5 1.5 0 0 0-.7 1.23l-.22 6.36a2.5 2.5 0 0 1-1.17 2.04l-5.4 3.36a1.5 1.5 0 0 0-.71 1.23l-.22 6.36a2.5 2.5 0 0 1-1.17 2.04l-5.4 3.36a1.5 1.5 0 0 0-.71 1.23l-.22 6.36a2.5 2.5 0 0 1-1.17 2.04l-5.4 3.37a1.5 1.5 0 0 0-.71 1.22l-.22 6.36a2.5 2.5 0 0 1-1.17 2.04l-5.4 3.37a1.5 1.5 0 0 0-.71 1.22l-.22 6.36a2.5 2.5 0 0 1-1.17 2.04l-5.4 3.37a1.5 1.5 0 0 0-.71 1.22l-.22 6.36a2.5 2.5 0 0 1-1.17 2.04l-5.4 3.37a1.5 1.5 0 0 0-.71 1.22l-.22 6.36a2.5 2.5 0 0 1-1.17 2.04l-5.4 3.37a1.5 1.5 0 0 0-.71 1.22l-.22 6.36a2.5 2.5 0 0 1-1.17 2.04l-5.4 3.37a1.5 1.5 0 0 0-.71 1.22l-.22 6.36a2.5 2.5 0 0 1-1.17 2.04l-5.4 3.37a1.5 1.5 0 0 0-.71 1.22l-.18 5.41h4.3l.08-2.44a2.5 2.5 0 0 1 1.17-2.04l5.4-3.37c.43-.26.7-.72.71-1.22l.22-6.36a2.5 2.5 0 0 1 1.17-2.04l5.4-3.37c.43-.26.7-.72.71-1.22l.22-6.36a2.5 2.5 0 0 1 1.17-2.04l5.4-3.37c.43-.26.7-.72.71-1.22l.22-6.37a2.5 2.5 0 0 1 1.17-2.03l5.4-3.37c.43-.26.7-.72.71-1.22l.22-6.37a2.5 2.5 0 0 1 1.17-2.03l5.4-3.37c.43-.26.7-.72.71-1.22l.22-6.37a2.5 2.5 0 0 1 1.17-2.03l5.4-3.37c.43-.26.7-.72.71-1.22l.22-6.37a2.5 2.5 0 0 1 1.17-2.03l5.4-3.37c.43-.27.7-.72.71-1.22l.22-6.37a2.5 2.5 0 0 1 1.17-2.03l5.4-3.37c.43-.27.7-.72.71-1.22l.22-6.37a2.5 2.5 0 0 1 1.17-2.03l5.4-3.37c.34-.21.58-.54.67-.92V25.94Zm0 14.55-.13.09-5.4 3.36a1.5 1.5 0 0 0-.72 1.23l-.2 6.36a2.5 2.5 0 0 1-1.19 2.04l-5.4 3.36a1.5 1.5 0 0 0-.7 1.23l-.22 6.36a2.5 2.5 0 0 1-1.17 2.04l-5.4 3.37a1.5 1.5 0 0 0-.72 1.22l-.2 6.36a2.5 2.5 0 0 1-1.19 2.04l-5.4 3.37a1.5 1.5 0 0 0-.7 1.22l-.22 6.36a2.5 2.5 0 0 1-1.17 2.04l-5.4 3.37a1.5 1.5 0 0 0-.72 1.22l-.2 6.36a2.5 2.5 0 0 1-1.19 2.04l-5.4 3.37a1.5 1.5 0 0 0-.7 1.22l-.22 6.36a2.5 2.5 0 0 1-1.17 2.04l-5.4 3.37a1.5 1.5 0 0 0-.72 1.22l-.2 6.36a2.5 2.5 0 0 1-1.19 2.04l-5.4 3.37a1.5 1.5 0 0 0-.7 1.22l-.22 6.36a2.5 2.5 0 0 1-1.17 2.04l-5.4 3.37a1.5 1.5 0 0 0-.72 1.22l-.08 2.41h4.36a2.5 2.5 0 0 1 1.1-1.48l5.4-3.37c.43-.26.7-.72.7-1.22l.22-6.36a2.5 2.5 0 0 1 1.18-2.04l5.4-3.37c.43-.26.7-.72.7-1.22l.22-6.36a2.5 2.5 0 0 1 1.18-2.04l5.4-3.37c.43-.26.7-.72.7-1.22l.22-6.37a2.5 2.5 0 0 1 1.18-2.03l5.4-3.37c.43-.26.7-.72.7-1.22l.22-6.36a2.5 2.5 0 0 1 1.18-2.04l5.4-3.37c.43-.26.7-.72.7-1.22l.22-6.37a2.5 2.5 0 0 1 1.18-2.03l5.4-3.37c.43-.26.7-.72.7-1.22l.22-6.37a2.5 2.5 0 0 1 1.18-2.03l5.4-3.37c.43-.27.7-.72.7-1.22l.22-6.37a2.5 2.5 0 0 1 1.18-2.03l5.4-3.37c.43-.27.7-.72.7-1.22l.22-6.37a2.5 2.5 0 0 1 1.18-2.03l.87-.55V40.5Zm0 6.24-.34.21a1.5 1.5 0 0 0-.7 1.23l-.22 6.36a2.5 2.5 0 0 1-1.18 2.04l-5.4 3.36a1.5 1.5 0 0 0-.7 1.23l-.22 6.36a2.5 2.5 0 0 1-1.18 2.04l-5.4 3.37a1.5 1.5 0 0 0-.7 1.22l-.22 6.36a2.5 2.5 0 0 1-1.18 2.04l-5.4 3.37a1.5 1.5 0 0 0-.7 1.22l-.22 6.36a2.5 2.5 0 0 1-1.18 2.04l-5.4 3.37a1.5 1.5 0 0 0-.7 1.22l-.22 6.36a2.5 2.5 0 0 1-1.18 2.04l-5.4 3.37a1.5 1.5 0 0 0-.7 1.22l-.22 6.36a2.5 2.5 0 0 1-1.18 2.04l-5.4 3.37a1.5 1.5 0 0 0-.7 1.22l-.22 6.36a2.5 2.5 0 0 1-1.18 2.04l-5.4 3.37a1.5 1.5 0 0 0-.7 1.22l-.22 6.36a2.5 2.5 0 0 1-1.18 2.04l-5.4 3.37a1.5 1.5 0 0 0-.57.63h7.67l2.97-1.85c.42-.26.69-.72.7-1.22l.22-6.36a2.5 2.5 0 0 1 1.17-2.04l5.4-3.37c.43-.26.7-.72.71-1.22l.22-6.36a2.5 2.5 0 0 1 1.17-2.04l5.4-3.37c.43-.26.7-.72.71-1.22l.22-6.37a2.5 2.5 0 0 1 1.17-2.03l5.4-3.37c.43-.26.7-.72.71-1.22l.22-6.36a2.5 2.5 0 0 1 1.17-2.04l5.4-3.37c.43-.26.7-.72.71-1.22l.22-6.37a2.5 2.5 0 0 1 1.17-2.03l5.4-3.37c.43-.26.7-.72.71-1.22l.22-6.37a2.5 2.5 0 0 1 1.17-2.03l5.4-3.37c.43-.27.7-.72.71-1.22l.22-6.37a2.5 2.5 0 0 1 1.17-2.03l3.18-1.98V46.73Zm0 14.56-2.65 1.64a1.5 1.5 0 0 0-.7 1.23l-.22 6.36a2.5 2.5 0 0 1-1.17 2.04l-5.4 3.37a1.5 1.5 0 0 0-.71 1.22l-.22 6.36a2.5 2.5 0 0 1-1.17 2.04l-5.4 3.37a1.5 1.5 0 0 0-.71 1.22l-.22 6.36a2.5 2.5 0 0 1-1.17 2.04l-5.4 3.37a1.5 1.5 0 0 0-.71 1.22l-.22 6.36a2.5 2.5 0 0 1-1.17 2.04l-5.4 3.37a1.5 1.5 0 0 0-.71 1.22l-.22 6.36a2.5 2.5 0 0 1-1.17 2.04l-5.4 3.37a1.5 1.5 0 0 0-.71 1.22l-.22 6.36a2.5 2.5 0 0 1-1.17 2.04l-5.4 3.37a1.5 1.5 0 0 0-.71 1.22l-.22 6.36a2.5 2.5 0 0 1-1.17 2.04l-1.6 1h6.97v-.07l.21-6.36a2.5 2.5 0 0 1 1.18-2.04l5.4-3.37c.43-.26.7-.72.71-1.22l.21-6.36a2.5 2.5 0 0 1 1.18-2.04l5.4-3.37c.43-.26.7-.72.71-1.22l.21-6.37a2.5 2.5 0 0 1 1.18-2.03l5.4-3.37c.43-.26.7-.72.71-1.22l.21-6.36a2.5 2.5 0 0 1 1.18-2.04l5.4-3.37c.43-.26.7-.72.71-1.22l.21-6.37a2.5 2.5 0 0 1 1.18-2.03l5.4-3.37c.43-.26.7-.72.71-1.22l.21-6.37a2.5 2.5 0 0 1 1.18-2.03l5.4-3.37.08-.05V61.29Zm0 14.55-4.95 3.09a1.5 1.5 0 0 0-.7 1.22l-.22 6.36a2.5 2.5 0 0 1-1.18 2.04l-5.4 3.37a1.5 1.5 0 0 0-.7 1.22l-.22 6.36a2.5 2.5 0 0 1-1.18 2.04l-5.4 3.37a1.5 1.5 0 0 0-.7 1.22l-.22 6.36a2.5 2.5 0 0 1-1.18 2.04l-5.4 3.37a1.5 1.5 0 0 0-.7 1.22l-.22 6.36a2.5 2.5 0 0 1-1.18 2.04l-5.4 3.37a1.5 1.5 0 0 0-.7 1.22l-.22 6.36a2.5 2.5 0 0 1-1.18 2.04l-5.4 3.37a1.5 1.5 0 0 0-.7 1.22l-.22 6.36v.04h4.3l.11-3.43a2.5 2.5 0 0 1 1.18-2.04l5.4-3.37c.42-.26.69-.72.7-1.22l.22-6.36a2.5 2.5 0 0 1 1.18-2.04l5.4-3.37c.42-.26.69-.72.7-1.22l.22-6.36a2.5 2.5 0 0 1 1.18-2.04l5.4-3.37c.42-.26.69-.72.7-1.22l.22-6.36a2.5 2.5 0 0 1 1.18-2.04l5.4-3.37c.42-.26.69-.72.7-1.22l.22-6.37a2.5 2.5 0 0 1 1.18-2.03l5.4-3.37c.42-.26.69-.72.7-1.22l.22-6.37a2.5 2.5 0 0 1 1.18-2.03l.28-.18v-5.06Zm0 6.28a1.5 1.5 0 0 0-.46 1.03l-.21 6.36a2.5 2.5 0 0 1-1.18 2.04l-5.4 3.37a1.5 1.5 0 0 0-.71 1.22l-.21 6.36a2.5 2.5 0 0 1-1.18 2.04l-5.4 3.37a1.5 1.5 0 0 0-.71 1.22l-.21 6.36a2.5 2.5 0 0 1-1.18 2.04l-5.4 3.37a1.5 1.5 0 0 0-.71 1.22l-.21 6.36a2.5 2.5 0 0 1-1.18 2.04l-5.4 3.37a1.5 1.5 0 0 0-.71 1.22l-.21 6.36a2.5 2.5 0 0 1-1.18 2.04l-5.4 3.37a1.5 1.5 0 0 0-.71 1.22l-.11 3.4h4.3v-.43a2.5 2.5 0 0 1 1.18-2.04l5.4-3.37c.43-.26.7-.72.71-1.22l.22-6.36a2.5 2.5 0 0 1 1.17-2.04l5.4-3.37c.43-.26.7-.72.71-1.22l.22-6.36a2.5 2.5 0 0 1 1.17-2.04l5.4-3.37c.43-.26.7-.72.71-1.22l.22-6.36a2.5 2.5 0 0 1 1.17-2.04l5.4-3.37c.43-.26.7-.72.71-1.22l.22-6.37a2.5 2.5 0 0 1 1.17-2.03l2.59-1.62V82.12Zm0 14.51-2.06 1.29a1.5 1.5 0 0 0-.7 1.22l-.22 6.36a2.5 2.5 0 0 1-1.17 2.04l-5.4 3.37a1.5 1.5 0 0 0-.71 1.22l-.22 6.36a2.5 2.5 0 0 1-1.17 2.04l-5.4 3.37a1.5 1.5 0 0 0-.71 1.22l-.22 6.36a2.5 2.5 0 0 1-1.17 2.04l-5.4 3.37a1.5 1.5 0 0 0-.71 1.22l-.22 6.36a2.5 2.5 0 0 1-1.17 2.04l-5.4 3.37a1.5 1.5 0 0 0-.71 1.22l-.02.4h6.24l4.55-2.84c.43-.26.7-.72.7-1.22l.22-6.36a2.5 2.5 0 0 1 1.18-2.04l5.4-3.37c.43-.26.7-.72.7-1.22l.22-6.36a2.5 2.5 0 0 1 1.18-2.04l5.4-3.37c.43-.26.7-.72.7-1.22l.22-6.36a2.5 2.5 0 0 1 1.18-2.04l4.89-3.05V96.63Zm0 14.56-4.36 2.72a1.5 1.5 0 0 0-.7 1.22l-.22 6.36a2.5 2.5 0 0 1-1.18 2.04l-5.4 3.37a1.5 1.5 0 0 0-.7 1.22l-.22 6.36a2.5 2.5 0 0 1-1.18 2.04l-5.4 3.37a1.5 1.5 0 0 0-.7 1.22l-.22 6.36a2.5 2.5 0 0 1-1.18 2.04l-3.2 1.99h8.08c.3-.27.48-.65.5-1.06l.2-6.36a2.5 2.5 0 0 1 1.19-2.04l5.4-3.37c.42-.26.69-.72.7-1.22l.22-6.36a2.5 2.5 0 0 1 1.18-2.04l5.4-3.37c.42-.26.69-.72.7-1.22l.22-6.36c.02-.71.34-1.37.87-1.82v-5.1Zm0 10.75-.09 2.55a2.5 2.5 0 0 1-1.17 2.04l-5.4 3.37a1.5 1.5 0 0 0-.71 1.22l-.22 6.36a2.5 2.5 0 0 1-1.17 2.04l-5.4 3.37a1.5 1.5 0 0 0-.71 1.22l-.22 6.36c0 .37-.1.71-.25 1.03h4.52l.14-4.42a2.5 2.5 0 0 1 1.18-2.04l5.4-3.37c.43-.26.7-.72.71-1.22l.21-6.36a2.5 2.5 0 0 1 1.18-2.04l2-1.25v-8.86Zm0 10.04-1.47.92a1.5 1.5 0 0 0-.7 1.22l-.22 6.36a2.5 2.5 0 0 1-1.18 2.04l-5.4 3.37a1.5 1.5 0 0 0-.7 1.22l-.15 4.39h4.3l.04-1.42a2.5 2.5 0 0 1 1.18-2.04l4.3-2.68v-13.38Zm0 14.56-3.77 2.35a1.5 1.5 0 0 0-.7 1.22l-.06 1.39h.03a4.5 4.5 0 0 0 4.5-4.5v-.47Zm-79.93 4.96 1.37-.86c.43-.26.7-.72.71-1.22l.21-6.36a2.5 2.5 0 0 1 1.18-2.04l5.4-3.37c.43-.26.7-.72.71-1.22l.21-6.36a2.5 2.5 0 0 1 1.18-2.04l5.4-3.37c.43-.26.7-.72.71-1.22l.21-6.36c.01-.23.05-.45.12-.66l-6.1 10.54a10 10 0 0 1-5.86 4.6l-.07 1.9a2.5 2.5 0 0 1-1.17 2.04l-5.4 3.37a1.5 1.5 0 0 0-.71 1.22l-.22 6.36a2.5 2.5 0 0 1-1.17 2.04l-4.83 3.01h8.12Zm-9.8 0c.16-.19.36-.35.57-.5l5.4-3.36c.43-.26.7-.72.71-1.22l.22-6.36a2.5 2.5 0 0 1 1.17-2.04l5.4-3.37c.43-.26.7-.72.71-1.22l.06-1.63c-.58.1-1.18.16-1.78.16h-3.04c-.17.21-.37.4-.61.54l-5.4 3.37a1.5 1.5 0 0 0-.7 1.22l-.22 6.36a2.5 2.5 0 0 1-1.18 2.04l-5.4 3.37a1.5 1.5 0 0 0-.7 1.22l-.06 1.42h4.85Zm-5.85 0 .05-1.45a2.5 2.5 0 0 1 1.18-2.04l5.4-3.37c.43-.26.69-.72.7-1.22l.22-6.36a2.5 2.5 0 0 1 1.18-2.04l4.9-3.06H122l-11.5 19.54h5.43Zm-90.59 0 33.3-56.56-2.33-4.04-3.85 2.4a1.5 1.5 0 0 0-.7 1.22l-.22 6.37a2.5 2.5 0 0 1-1.18 2.03l-5.4 3.37a1.5 1.5 0 0 0-.7 1.22l-.22 6.37a2.5 2.5 0 0 1-1.18 2.03l-5.4 3.37a1.5 1.5 0 0 0-.7 1.22l-.22 6.37a2.5 2.5 0 0 1-1.18 2.03l-5.4 3.37a1.5 1.5 0 0 0-.7 1.22l-.22 6.37a2.5 2.5 0 0 1-1.18 2.03l-5.4 3.37a1.5 1.5 0 0 0-.7 1.22l-.18 5.02H25.33Zm-4.76 0 .17-5.05a2.5 2.5 0 0 1 1.18-2.04l5.4-3.36c.43-.27.7-.73.7-1.23l.22-6.36a2.5 2.5 0 0 1 1.18-2.04l5.4-3.36c.43-.27.7-.73.7-1.23l.22-6.36a2.5 2.5 0 0 1 1.18-2.04l5.4-3.37c.43-.26.7-.72.7-1.22l.22-6.36a2.5 2.5 0 0 1 1.18-2.04l5.4-3.36c.43-.27.7-.73.7-1.23l.22-6.36a2.5 2.5 0 0 1 1.18-2.04l3.87-2.41-2.3-3.98c-.2.35-.48.65-.83.87l-5.4 3.37a1.5 1.5 0 0 0-.71 1.22l-.22 6.37a2.5 2.5 0 0 1-1.17 2.03l-5.4 3.37a1.5 1.5 0 0 0-.71 1.22l-.22 6.37a2.5 2.5 0 0 1-1.17 2.03l-5.4 3.37a1.5 1.5 0 0 0-.71 1.22l-.22 6.37a2.5 2.5 0 0 1-1.17 2.03l-5.4 3.37a1.5 1.5 0 0 0-.71 1.22l-.22 6.37a2.5 2.5 0 0 1-1.17 2.03l-5.4 3.37a1.5 1.5 0 0 0-.71 1.22l-.22 6.37a2.5 2.5 0 0 1-.7 1.65h4.94Zm-6.69 0 .75-.46c.42-.27.69-.73.7-1.23l.22-6.36a2.5 2.5 0 0 1 1.17-2.04l5.4-3.36c.43-.27.7-.73.71-1.23l.22-6.36a2.5 2.5 0 0 1 1.17-2.04l5.4-3.36c.43-.27.7-.73.71-1.23l.22-6.36a2.5 2.5 0 0 1 1.17-2.04l5.4-3.37c.43-.26.7-.72.71-1.22l.22-6.36a2.5 2.5 0 0 1 1.17-2.04l5.4-3.37c.43-.26.7-.72.71-1.22l.22-6.36a2.5 2.5 0 0 1 1.17-2.04l5.4-3.37c.42-.25.68-.7.71-1.18a10 10 0 0 1 .06-9.9l2.59-4.48c-.15.16-.33.3-.52.42l-5.4 3.37a1.5 1.5 0 0 0-.71 1.22l-.21 6.37a2.5 2.5 0 0 1-1.18 2.03l-5.4 3.37a1.5 1.5 0 0 0-.71 1.22l-.21 6.37a2.5 2.5 0 0 1-1.18 2.03l-5.4 3.37a1.5 1.5 0 0 0-.71 1.22l-.21 6.37a2.5 2.5 0 0 1-1.18 2.03l-5.4 3.37a1.5 1.5 0 0 0-.71 1.22l-.21 6.37a2.5 2.5 0 0 1-1.18 2.03l-5.4 3.37a1.5 1.5 0 0 0-.71 1.22l-.21 6.37a2.5 2.5 0 0 1-1.18 2.03l-5.4 3.37a1.5 1.5 0 0 0-.71 1.22l-.21 6.37a2.5 2.5 0 0 1-1.18 2.03l-.78.5A4.5 4.5 0 0 0 13 151.5h.88Zm-5.14-3.03.7-.43c.42-.27.68-.73.7-1.23l.21-6.36a2.5 2.5 0 0 1 1.18-2.04l5.4-3.36c.43-.27.69-.73.7-1.23l.22-6.36a2.5 2.5 0 0 1 1.18-2.04l5.4-3.36c.43-.27.69-.73.7-1.23l.22-6.36a2.5 2.5 0 0 1 1.18-2.04l5.4-3.37c.43-.26.69-.72.7-1.22l.22-6.36a2.5 2.5 0 0 1 1.18-2.04l5.4-3.37c.43-.26.69-.72.7-1.22l.22-6.36a2.5 2.5 0 0 1 1.18-2.04l5.4-3.37c.43-.26.69-.72.7-1.22l.22-6.36a2.5 2.5 0 0 1 1.18-2.04l5.4-3.37c.43-.26.69-.72.7-1.22l.22-6.36a2.5 2.5 0 0 1 1.18-2.04l5.4-3.37c.43-.26.69-.72.7-1.22l.22-6.36a2.5 2.5 0 0 1 1.18-2.04l5.4-3.37c.43-.26.69-.72.7-1.22l.22-6.36a2.5 2.5 0 0 1 1.18-2.04l5.4-3.37c.43-.26.69-.72.7-1.22l.22-6.36a2.5 2.5 0 0 1 1.18-2.04l5.4-3.37c.43-.26.69-.72.7-1.22l.22-6.36a2.5 2.5 0 0 1 1.18-2.04l.01-.01h-5.42l-.18 5.44a2.5 2.5 0 0 1-1.18 2.04l-5.4 3.37a1.5 1.5 0 0 0-.7 1.22l-.22 6.36a2.5 2.5 0 0 1-1.18 2.04l-5.4 3.37a1.5 1.5 0 0 0-.7 1.22l-.22 6.36a2.5 2.5 0 0 1-1.18 2.04l-5.4 3.37a1.5 1.5 0 0 0-.7 1.22l-.22 6.36a2.5 2.5 0 0 1-1.18 2.04l-5.4 3.37a1.5 1.5 0 0 0-.7 1.22l-.22 6.37a2.5 2.5 0 0 1-1.18 2.03l-5.4 3.37a1.5 1.5 0 0 0-.7 1.22l-.22 6.37a2.5 2.5 0 0 1-1.18 2.03l-5.4 3.37a1.5 1.5 0 0 0-.7 1.22l-.22 6.37a2.5 2.5 0 0 1-1.18 2.03l-5.4 3.37a1.5 1.5 0 0 0-.7 1.22l-.22 6.37a2.5 2.5 0 0 1-1.18 2.03l-5.4 3.37a1.5 1.5 0 0 0-.7 1.22l-.22 6.37a2.5 2.5 0 0 1-1.18 2.03l-5.4 3.37a1.5 1.5 0 0 0-.7 1.22l-.22 6.37a2.5 2.5 0 0 1-1.18 2.03l-3.76 2.35V147c0 .51.09 1 .24 1.47Zm-.24-14.4 3.23-2.02c.43-.27.7-.73.71-1.23l.21-6.36a2.5 2.5 0 0 1 1.18-2.04l5.4-3.36c.43-.27.7-.73.71-1.23l.21-6.36a2.5 2.5 0 0 1 1.18-2.04l5.4-3.37c.43-.26.7-.72.71-1.22l.21-6.36a2.5 2.5 0 0 1 1.18-2.04l5.4-3.37c.43-.26.7-.72.71-1.22l.21-6.36a2.5 2.5 0 0 1 1.18-2.04l5.4-3.37c.43-.26.7-.72.71-1.22l.21-6.36a2.5 2.5 0 0 1 1.18-2.04l5.4-3.37c.43-.26.7-.72.71-1.22l.21-6.36a2.5 2.5 0 0 1 1.18-2.04l5.4-3.37c.43-.26.7-.72.71-1.22l.21-6.36a2.5 2.5 0 0 1 1.18-2.04l5.4-3.37c.43-.26.7-.72.71-1.22l.21-6.36a2.5 2.5 0 0 1 1.18-2.04l5.4-3.37c.43-.26.7-.72.71-1.22l.21-6.36a2.5 2.5 0 0 1 1.18-2.04l5.4-3.37c.43-.26.7-.72.71-1.22l.18-5.41h-4.3l-.08 2.44a2.5 2.5 0 0 1-1.17 2.04l-5.4 3.37a1.5 1.5 0 0 0-.71 1.22l-.22 6.36a2.5 2.5 0 0 1-1.17 2.04l-5.4 3.37a1.5 1.5 0 0 0-.71 1.22l-.22 6.36a2.5 2.5 0 0 1-1.17 2.04l-5.4 3.37a1.5 1.5 0 0 0-.71 1.22l-.22 6.36a2.5 2.5 0 0 1-1.17 2.04l-5.4 3.37a1.5 1.5 0 0 0-.71 1.22l-.22 6.37a2.5 2.5 0 0 1-1.17 2.03l-5.4 3.37a1.5 1.5 0 0 0-.71 1.22l-.22 6.37a2.5 2.5 0 0 1-1.17 2.03l-5.4 3.37a1.5 1.5 0 0 0-.71 1.22l-.22 6.37a2.5 2.5 0 0 1-1.17 2.03l-5.4 3.37a1.5 1.5 0 0 0-.71 1.22l-.22 6.37a2.5 2.5 0 0 1-1.17 2.03l-5.4 3.37a1.5 1.5 0 0 0-.71 1.22l-.22 6.37a2.5 2.5 0 0 1-1.17 2.03l-5.4 3.37a1.5 1.5 0 0 0-.67.92v12.87Zm0-14.56.14-.09 5.4-3.36c.42-.27.69-.73.7-1.23l.22-6.36a2.5 2.5 0 0 1 1.18-2.04l5.4-3.37c.42-.26.69-.72.7-1.22l.22-6.36a2.5 2.5 0 0 1 1.18-2.04l5.4-3.37c.42-.26.69-.72.7-1.22l.22-6.36a2.5 2.5 0 0 1 1.18-2.04l5.4-3.37c.42-.26.69-.72.7-1.22l.22-6.36a2.5 2.5 0 0 1 1.18-2.04l5.4-3.37c.42-.26.69-.72.7-1.22l.22-6.36a2.5 2.5 0 0 1 1.18-2.04l5.4-3.37c.42-.26.69-.72.7-1.22l.22-6.36a2.5 2.5 0 0 1 1.18-2.04l5.4-3.37c.42-.26.69-.72.7-1.22l.22-6.36a2.5 2.5 0 0 1 1.18-2.04l5.4-3.37c.42-.26.69-.72.7-1.22l.22-6.36a2.5 2.5 0 0 1 1.18-2.04l5.4-3.37c.42-.26.69-.72.7-1.22l.09-2.41h-4.36a2.5 2.5 0 0 1-1.1 1.48l-5.4 3.37a1.5 1.5 0 0 0-.7 1.22l-.22 6.36a2.5 2.5 0 0 1-1.18 2.04l-5.4 3.37a1.5 1.5 0 0 0-.7 1.22l-.22 6.36a2.5 2.5 0 0 1-1.18 2.04l-5.4 3.37a1.5 1.5 0 0 0-.7 1.22l-.22 6.36a2.5 2.5 0 0 1-1.18 2.04l-5.4 3.37a1.5 1.5 0 0 0-.7 1.22l-.22 6.37a2.5 2.5 0 0 1-1.18 2.03l-5.4 3.37a1.5 1.5 0 0 0-.7 1.22l-.22 6.37a2.5 2.5 0 0 1-1.18 2.03l-5.4 3.37a1.5 1.5 0 0 0-.7 1.22l-.22 6.37a2.5 2.5 0 0 1-1.18 2.03l-5.4 3.37a1.5 1.5 0 0 0-.7 1.22l-.22 6.37a2.5 2.5 0 0 1-1.18 2.03l-5.4 3.37a1.5 1.5 0 0 0-.7 1.22l-.22 6.37a2.5 2.5 0 0 1-1.18 2.03l-.87.55v5.06Zm0-6.24.34-.21c.43-.27.7-.73.7-1.23l.22-6.36a2.5 2.5 0 0 1 1.18-2.04l5.4-3.37c.43-.26.7-.72.7-1.22l.22-6.36a2.5 2.5 0 0 1 1.18-2.04l5.4-3.37c.43-.26.7-.72.7-1.22l.22-6.36a2.5 2.5 0 0 1 1.18-2.04l5.4-3.37c.43-.26.7-.72.7-1.22l.22-6.36a2.5 2.5 0 0 1 1.18-2.04l5.4-3.37c.43-.26.7-.72.7-1.22l.22-6.36a2.5 2.5 0 0 1 1.18-2.04l5.4-3.37c.43-.26.7-.72.7-1.22l.22-6.36a2.5 2.5 0 0 1 1.18-2.04l5.4-3.37c.43-.26.7-.72.7-1.22l.22-6.36a2.5 2.5 0 0 1 1.18-2.04l5.4-3.37c.43-.26.7-.72.7-1.22l.22-6.36a2.5 2.5 0 0 1 1.18-2.04l5.4-3.37c.25-.15.44-.37.57-.63h-7.67l-2.97 1.85a1.5 1.5 0 0 0-.7 1.22l-.22 6.36a2.5 2.5 0 0 1-1.17 2.04l-5.4 3.37a1.5 1.5 0 0 0-.71 1.22l-.22 6.36a2.5 2.5 0 0 1-1.17 2.04l-5.4 3.37a1.5 1.5 0 0 0-.71 1.22l-.22 6.36a2.5 2.5 0 0 1-1.17 2.04l-5.4 3.37a1.5 1.5 0 0 0-.71 1.22l-.22 6.37a2.5 2.5 0 0 1-1.17 2.03l-5.4 3.37a1.5 1.5 0 0 0-.71 1.22l-.22 6.37a2.5 2.5 0 0 1-1.17 2.03l-5.4 3.37a1.5 1.5 0 0 0-.71 1.22l-.22 6.37a2.5 2.5 0 0 1-1.17 2.03l-5.4 3.37a1.5 1.5 0 0 0-.71 1.22l-.22 6.37a2.5 2.5 0 0 1-1.17 2.03L8.5 99.9v13.38Zm0-14.56 2.65-1.64c.42-.27.69-.73.7-1.23l.22-6.36a2.5 2.5 0 0 1 1.17-2.04l5.4-3.37c.43-.26.7-.72.71-1.22l.22-6.36a2.5 2.5 0 0 1 1.17-2.04l5.4-3.37c.43-.26.7-.72.71-1.22l.22-6.36a2.5 2.5 0 0 1 1.17-2.04l5.4-3.37c.43-.26.7-.72.71-1.22l.22-6.36a2.5 2.5 0 0 1 1.17-2.04l5.4-3.37c.43-.26.7-.72.71-1.22l.22-6.36a2.5 2.5 0 0 1 1.17-2.04l5.4-3.37c.43-.26.7-.72.71-1.22l.22-6.36a2.5 2.5 0 0 1 1.17-2.04l5.4-3.37c.43-.26.7-.72.71-1.22l.22-6.36a2.5 2.5 0 0 1 1.17-2.04l1.6-1h-6.97v.07l-.21 6.36a2.5 2.5 0 0 1-1.18 2.04l-5.4 3.37a1.5 1.5 0 0 0-.71 1.22l-.21 6.36a2.5 2.5 0 0 1-1.18 2.04l-5.4 3.37a1.5 1.5 0 0 0-.71 1.22l-.21 6.36a2.5 2.5 0 0 1-1.18 2.04l-5.4 3.37a1.5 1.5 0 0 0-.71 1.22l-.21 6.37a2.5 2.5 0 0 1-1.18 2.03l-5.4 3.37a1.5 1.5 0 0 0-.71 1.22l-.21 6.37a2.5 2.5 0 0 1-1.18 2.03l-5.4 3.37a1.5 1.5 0 0 0-.71 1.22l-.21 6.37a2.5 2.5 0 0 1-1.18 2.03l-5.4 3.37a1.5 1.5 0 0 0-.08.05v13.37Zm0-14.55 4.95-3.09c.42-.26.69-.72.7-1.22l.22-6.36a2.5 2.5 0 0 1 1.18-2.04l5.4-3.37c.42-.26.69-.72.7-1.22l.22-6.36a2.5 2.5 0 0 1 1.18-2.04l5.4-3.37c.42-.26.69-.72.7-1.22l.22-6.36a2.5 2.5 0 0 1 1.18-2.04l5.4-3.37c.42-.26.69-.72.7-1.22l.22-6.36a2.5 2.5 0 0 1 1.18-2.04l5.4-3.37c.42-.26.69-.72.7-1.22l.22-6.36a2.5 2.5 0 0 1 1.18-2.04l5.4-3.37c.42-.26.69-.72.7-1.22l.22-6.36V8.5h-4.3l-.11 3.43a2.5 2.5 0 0 1-1.18 2.04l-5.4 3.37a1.5 1.5 0 0 0-.7 1.22l-.22 6.36a2.5 2.5 0 0 1-1.18 2.04l-5.4 3.37a1.5 1.5 0 0 0-.7 1.22l-.22 6.36a2.5 2.5 0 0 1-1.18 2.04l-5.4 3.37a1.5 1.5 0 0 0-.7 1.22l-.22 6.37a2.5 2.5 0 0 1-1.18 2.03l-5.4 3.37a1.5 1.5 0 0 0-.7 1.22l-.22 6.37a2.5 2.5 0 0 1-1.18 2.03l-5.4 3.37a1.5 1.5 0 0 0-.7 1.22l-.22 6.37a2.5 2.5 0 0 1-1.18 2.03l-.28.18v5.06Zm0-6.28c.28-.26.45-.63.46-1.03l.21-6.36a2.5 2.5 0 0 1 1.18-2.04l5.4-3.37c.43-.26.7-.72.71-1.22l.21-6.36a2.5 2.5 0 0 1 1.18-2.04l5.4-3.37c.43-.26.7-.72.71-1.22l.21-6.36a2.5 2.5 0 0 1 1.18-2.04l5.4-3.37c.43-.26.7-.72.71-1.22l.21-6.36a2.5 2.5 0 0 1 1.18-2.04l5.4-3.37c.43-.26.7-.72.71-1.22l.21-6.36a2.5 2.5 0 0 1 1.18-2.04l5.4-3.37c.43-.26.7-.72.71-1.22l.11-3.4h-4.3v.43a2.5 2.5 0 0 1-1.18 2.04l-5.4 3.37a1.5 1.5 0 0 0-.71 1.22l-.22 6.36a2.5 2.5 0 0 1-1.17 2.04l-5.4 3.37a1.5 1.5 0 0 0-.71 1.22l-.22 6.36a2.5 2.5 0 0 1-1.17 2.04l-5.4 3.37a1.5 1.5 0 0 0-.71 1.22l-.22 6.37a2.5 2.5 0 0 1-1.17 2.03l-5.4 3.37a1.5 1.5 0 0 0-.71 1.22l-.22 6.37a2.5 2.5 0 0 1-1.17 2.03L8.5 64.55v13.33Zm0-14.51 2.06-1.29c.42-.26.69-.72.7-1.22l.22-6.36a2.5 2.5 0 0 1 1.17-2.04l5.4-3.37c.43-.26.7-.72.71-1.22l.22-6.36a2.5 2.5 0 0 1 1.17-2.04l5.4-3.37c.43-.26.7-.72.71-1.22l.22-6.36a2.5 2.5 0 0 1 1.17-2.04l5.4-3.37c.43-.26.7-.72.71-1.22l.22-6.36a2.5 2.5 0 0 1 1.17-2.04l5.4-3.37c.43-.26.7-.72.71-1.22l.02-.4h-6.24l-4.55 2.84a1.5 1.5 0 0 0-.7 1.22l-.22 6.36a2.5 2.5 0 0 1-1.18 2.04L23 24.33a1.5 1.5 0 0 0-.7 1.22l-.22 6.36a2.5 2.5 0 0 1-1.18 2.04l-5.4 3.37a1.5 1.5 0 0 0-.7 1.22l-.22 6.37a2.5 2.5 0 0 1-1.18 2.03L8.5 50v13.38Zm0-14.56 4.36-2.72c.43-.26.7-.72.7-1.22l.22-6.36a2.5 2.5 0 0 1 1.18-2.04l5.4-3.37c.43-.26.7-.72.7-1.22l.22-6.36a2.5 2.5 0 0 1 1.18-2.04l5.4-3.37c.43-.26.7-.72.7-1.22l.22-6.36a2.5 2.5 0 0 1 1.18-2.04l3.2-1.99h-8.08c-.3.27-.48.65-.5 1.06l-.2 6.36a2.5 2.5 0 0 1-1.19 2.04l-5.4 3.37a1.5 1.5 0 0 0-.7 1.22l-.22 6.36a2.5 2.5 0 0 1-1.18 2.04l-5.4 3.37a1.5 1.5 0 0 0-.7 1.22l-.22 6.37a2.5 2.5 0 0 1-.87 1.8v5.1Zm0-10.76.09-2.54a2.5 2.5 0 0 1 1.17-2.04l5.4-3.37c.43-.26.7-.72.71-1.22l.22-6.36a2.5 2.5 0 0 1 1.17-2.04l5.4-3.37c.43-.26.7-.72.71-1.22l.22-6.36c0-.36.1-.71.25-1.03h-4.52l-.15 4.42A2.5 2.5 0 0 1 18 14.96l-5.4 3.37a1.5 1.5 0 0 0-.71 1.22l-.22 6.36a2.5 2.5 0 0 1-1.17 2.04l-2 1.25v8.85Zm0-10.03 1.47-.92c.42-.26.69-.72.7-1.22l.22-6.36a2.5 2.5 0 0 1 1.18-2.04l5.4-3.37c.42-.26.69-.72.7-1.22l.15-4.39h-4.3l-.04 1.42a2.5 2.5 0 0 1-1.18 2.04l-4.3 2.68v13.38Zm0-14.56 3.77-2.35c.43-.26.7-.72.7-1.22l.06-1.39H13A4.5 4.5 0 0 0 8.5 13v.46ZM88.43 8.5l-1.37.86a1.5 1.5 0 0 0-.71 1.22l-.21 6.36a2.5 2.5 0 0 1-1.18 2.04l-5.4 3.37a1.5 1.5 0 0 0-.71 1.22l-.21 6.36a2.5 2.5 0 0 1-1.18 2.04l-5.4 3.37a1.5 1.5 0 0 0-.71 1.22l-.21 6.36c-.01.23-.05.45-.12.67l6.1-10.55a10 10 0 0 1 5.86-4.6l.07-1.9a2.5 2.5 0 0 1 1.17-2.04l5.4-3.37c.43-.26.7-.72.71-1.22l.22-6.36a2.5 2.5 0 0 1 1.17-2.04l4.83-3.01h-8.12Zm9.8 0a2.5 2.5 0 0 1-.57.5l-5.4 3.36a1.5 1.5 0 0 0-.71 1.22l-.22 6.36a2.5 2.5 0 0 1-1.17 2.04l-5.4 3.37a1.5 1.5 0 0 0-.71 1.22l-.06 1.63a10 10 0 0 1 1.78-.16h3.04c.17-.21.37-.4.61-.54l5.4-3.37c.43-.26.7-.72.7-1.22l.22-6.36a2.5 2.5 0 0 1 1.18-2.04l5.4-3.37c.43-.26.7-.72.7-1.22l.06-1.42h-4.85Zm5.85 0-.05 1.45a2.5 2.5 0 0 1-1.18 2.04l-5.4 3.37a1.5 1.5 0 0 0-.7 1.22l-.22 6.36a2.5 2.5 0 0 1-1.18 2.04l-4.9 3.06H98L109.5 8.5h-5.42ZM69.96 44.96c.2-.12.37-.26.52-.43l-6.96 12.05c.07-.22.1-.44.12-.67l.21-6.36c.02-.5.28-.96.7-1.22l5.41-3.37Zm-7.5 13c.2-.13.37-.27.52-.44l-6.96 12.05c.07-.22.1-.44.12-.66l.21-6.37c.02-.5.28-.96.7-1.22l5.41-3.37Zm87.58 57.08c-.2.12-.36.26-.52.42l6.96-12.03c-.07.2-.1.43-.12.65l-.21 6.37c-.02.5-.28.96-.7 1.22l-5.41 3.37Zm7.5-13c-.2.13-.36.27-.52.43l6.96-12.04c-.07.22-.1.44-.12.66l-.21 6.37c-.02.5-.28.96-.7 1.22l-5.41 3.37Zm-15.52 24.42 24.23-41.96a9 9 0 0 0 0-9l-24.23-41.96a9 9 0 0 0-7.8-4.5H85.78a9 9 0 0 0-7.8 4.5L53.76 75.5a9 9 0 0 0 0 9l24.23 41.96a9 9 0 0 0 7.8 4.5h48.45a9 9 0 0 0 7.8-4.5Z" fill="#BAD6EB"/><path d="M158.27 77a6 6 0 0 1 0 6l-21.54 37.3a6 6 0 0 1-5.2 3H88.47a6 6 0 0 1-5.2-3L61.74 83a6 6 0 0 1 0-6l21.54-37.3a6 6 0 0 1 5.2-3h43.07a6 6 0 0 1 5.2 3L158.26 77Z" fill="#fff"/><ellipse cx="110" cy="80.51" rx="5.09" ry="3.57" fill="#00CA51"/><path fill-rule="evenodd" clip-rule="evenodd" d="M84.02 80a25.98 25.98 0 1 1 51.96 0 25.98 25.98 0 0 1-51.96 0ZM110 53a27 27 0 1 0 0 54 27 27 0 0 0 0-54ZM89.14 79c.06-1.4.27-2.77.6-4.09a80.68 80.68 0 0 1 11.17-2.05 6.3 6.3 0 0 0-2.65 2.37 8.3 8.3 0 0 0-1.03 3.99c-.04.86-.02 1.78 0 2.7l.03 1.3a9.66 9.66 0 0 0-7.64-3.73.47.47 0 0 1-.48-.48Zm10.08 8.9a9.77 9.77 0 0 1-2.7 8.06 20.9 20.9 0 0 0 4.48 2.9 9.7 9.7 0 0 1 5.96-5.64 17.54 17.54 0 0 1-7.74-5.32Zm13.82 5.32a9.68 9.68 0 0 1 3.85 2.4.51.51 0 0 1-.72.71 8.66 8.66 0 0 0-14.24 2.94 20.8 20.8 0 0 0 21.55-3.31 9.65 9.65 0 0 1-2.7-8.06 17.54 17.54 0 0 1-7.75 5.32Zm9.7-10a9.66 9.66 0 0 1 8.14-3.72 21.06 21.06 0 0 0-.55-4.31.47.47 0 0 0-.35-.35 80.68 80.68 0 0 0-10.9-1.98 6.3 6.3 0 0 1 2.66 2.37c.73 1.2.97 2.58 1.03 3.99.04.86.02 1.78 0 2.7l-.03 1.3ZM110 71.35c-6.88 0-13.56.85-19.95 2.44a20.9 20.9 0 0 1 38.04-4.22.5.5 0 1 0 .88-.51 21.9 21.9 0 0 0-40.07 5.03l-.06.23a21.8 21.8 0 0 0-.72 4.65 1.5 1.5 0 0 0 1.5 1.55 8.66 8.66 0 0 1 6.14 14.77c-2.8-2.62-4.9-6-5.92-9.8a.5.5 0 1 0-.99.26 21.9 21.9 0 0 0 6.16 10.23l.42.39a21.99 21.99 0 0 0 5.71 3.68l.45.2a21.84 21.84 0 0 0 8.41 1.67 21.81 21.81 0 0 0 14.59-5.57l.4-.36a21.84 21.84 0 0 0 6.9-15.36h.01V80a22.32 22.32 0 0 0-.58-5.04 1.5 1.5 0 0 0-1.09-1.1A82.18 82.18 0 0 0 110 71.33Zm-.01 1.02c-6.9 0-9.69 1.46-10.86 3.4-.6.98-.82 2.17-.88 3.5-.04.84-.02 1.69 0 2.57.02.56.03 1.14.03 1.74 0 .82.38 1.8 1.1 2.85.71 1.04 1.72 2.1 2.9 3.04 2.36 1.9 5.31 3.28 7.72 3.28 2.4 0 5.36-1.38 7.72-3.28 1.18-.94 2.19-2 2.9-3.04a5.36 5.36 0 0 0 1.1-2.85c0-.6.01-1.18.03-1.74.02-.88.04-1.73 0-2.56a7.31 7.31 0 0 0-.88-3.51c-1.17-1.95-3.97-3.4-10.87-3.4h-.01Zm20.89 8.16a20.83 20.83 0 0 1-6.64 14.76 8.66 8.66 0 0 1 6.64-14.76Z" fill="#8CAEC8"/></svg>