<svg width="24" height="24" fill="none" xmlns="http://www.w3.org/2000/svg"><circle cx="12" cy="12" r="10.5" stroke="#333"/><circle cx="12" cy="12.5" r="2" stroke="#333"/><path d="M6.07 9.65c-.2.08-.34.1-.41.09-.07 0-.08-.02-.09-.03-.03-.03-.11-.18-.07-.57.08-.73.57-1.76 1.26-2.43a7.47 7.47 0 0 1 10.48 0c.7.67 1.18 1.7 1.26 2.43.04.39-.04.54-.07.57 0 0-.02.03-.09.03-.07 0-.2 0-.41-.09a15.67 15.67 0 0 0-11.86 0ZM10.03 19.38a7.51 7.51 0 0 1-5.33-5.36c-.1-.53 0-.8.1-.93.1-.12.28-.22.62-.2.7.02 1.78.51 2.73 1.46a8.05 8.05 0 0 1 1.92 3.5c.15.6.17 1.05.1 1.33-.03.13-.07.17-.08.18 0 0 0 .02-.06.02ZM13.97 19.38a7.51 7.51 0 0 0 5.33-5.36c.1-.53 0-.8-.1-.93-.1-.12-.28-.22-.62-.2-.7.02-1.78.51-2.73 1.46a8.05 8.05 0 0 0-1.92 3.5 3.08 3.08 0 0 0-.1 1.33c.03.13.07.17.08.18 0 0 0 .02.06.02Z" stroke="#333"/></svg>