<svg width="40" height="36" fill="none" xmlns="http://www.w3.org/2000/svg"><path fill-rule="evenodd" clip-rule="evenodd" d="M24 0a2 2 0 0 0-2 2v12c0 1.1.9 2 2 2h14a2 2 0 0 0 2-2V2a2 2 0 0 0-2-2H24ZM2 20a2 2 0 0 0-2 2v12c0 1.1.9 2 2 2h14a2 2 0 0 0 2-2V22a2 2 0 0 0-2-2H2Z" fill="#00CA51"/><path fill-rule="evenodd" clip-rule="evenodd" d="M2 0a2 2 0 0 0-2 2v12c0 1.1.9 2 2 2h14a2 2 0 0 0 2-2V2a2 2 0 0 0-2-2H2Zm22 20a2 2 0 0 0-2 2v12c0 1.1.9 2 2 2h14a2 2 0 0 0 2-2V22a2 2 0 0 0-2-2H24Z" fill="#FFBF20"/></svg>