<svg width="24" height="24" fill="none" xmlns="http://www.w3.org/2000/svg"><mask id="a" maskUnits="userSpaceOnUse" x="1" y="1" width="22" height="22" fill="#000"><path fill="#fff" d="M1 1h22v22H1z"/><path fill-rule="evenodd" clip-rule="evenodd" d="M14.5 4.5c0 .5-.08 1.24-.24 2.04.46-.67.92-1.25 1.28-1.61 1.3-1.3 2.55-.98 3.53 0s1.3 2.23 0 3.53c-.36.36-.94.82-1.6 1.28.8-.16 1.52-.24 2.03-.24 1.84 0 2.5 1.12 2.5 2.5s-.66 2.5-2.5 2.5c-.5 0-1.24-.08-2.04-.24.67.46 1.25.92 1.61 1.28 1.3 1.3.98 2.55 0 3.53s-2.23 1.3-3.53 0c-.36-.36-.82-.94-1.28-1.6.16.8.24 1.52.24 2.03 0 1.84-1.12 2.5-2.5 2.5s-2.5-.66-2.5-2.5c0-.5.08-1.24.24-2.04-.46.67-.92 1.25-1.28 1.61-1.3 1.3-2.55.98-3.53 0s-1.3-2.23 0-3.53c.36-.36.94-.82 1.6-1.28-.8.16-1.52.24-2.03.24C2.66 14.5 2 13.38 2 12s.66-2.5 2.5-2.5c.5 0 1.24.08 2.04.24a11.8 11.8 0 0 1-1.61-1.28c-1.3-1.3-.98-2.55 0-3.53s2.23-1.3 3.53 0c.36.36.82.94 1.28 1.6A11.8 11.8 0 0 1 9.5 4.5C9.5 2.66 10.62 2 12 2s2.5.66 2.5 2.5ZM12 16a4 4 0 1 0 0-8 4 4 0 0 0 0 8Z"/></mask><path d="m14.26 6.54-.98-.2 1.81.76-.83-.56Zm1.28-1.61-.71-.7.7.7Zm3.53 3.53-.7-.7.7.7Zm-1.6 1.28-.57-.83.75 1.8-.19-.97Zm0 4.52.18-.98-.75 1.81.56-.83Zm-1.93 4.81-.71.7.7-.7Zm-1.28-1.6.83-.57-1.8.75.97-.19Zm-4.52 0 .98.18-1.81-.75.83.56Zm-1.28 1.6-.7-.7.7.7Zm-3.53 0-.7.7.7-.7Zm0-3.53.7.7-.7-.7Zm1.6-1.28.57.83-.75-1.8.19.97Zm0-4.52-.18.98.75-1.81-.56.83Zm-1.6-4.81-.7-.7.7.7Zm3.53 0-.7.7.7-.7Zm1.28 1.6-.83.57 1.8-.75-.97.19Zm5.5.2c.16-.83.26-1.64.26-2.23h-2c0 .42-.07 1.08-.22 1.85l1.97.37Zm-.41-2.5c-.42.41-.92 1.05-1.4 1.74L15.1 7.1c.44-.65.86-1.17 1.15-1.46l-1.41-1.42Zm4.95 0a3.62 3.62 0 0 0-2.29-1.15 3.43 3.43 0 0 0-2.66 1.14l1.41 1.42c.5-.5.88-.58 1.12-.57.27.02.62.18 1 .57l1.42-1.42Zm0 4.94c.8-.8 1.2-1.7 1.14-2.66a3.62 3.62 0 0 0-1.14-2.29l-1.42 1.42c.4.38.55.73.57 1 .01.24-.06.62-.57 1.12l1.42 1.41Zm-1.75 1.4c.7-.48 1.33-.98 1.75-1.4l-1.42-1.41c-.3.3-.81.71-1.46 1.15l1.13 1.65ZM19.5 8.5c-.6 0-1.4.1-2.22.25l.37 1.97c.77-.15 1.43-.22 1.85-.22v-2ZM23 12c0-.83-.2-1.73-.8-2.43a3.43 3.43 0 0 0-2.7-1.07v2c.71 0 1.03.2 1.19.39.18.2.31.56.31 1.11h2Zm-3.5 3.5c1.13 0 2.06-.35 2.7-1.07.6-.7.8-1.6.8-2.43h-2c0 .55-.13.9-.31 1.11-.16.18-.48.39-1.19.39v2Zm-2.22-.25c.82.15 1.63.25 2.22.25v-2c-.42 0-1.08-.07-1.85-.22l-.37 1.97Zm2.5-.42c-.42-.42-1.06-.92-1.75-1.4L16.9 15.1c.65.44 1.17.86 1.46 1.15l1.42-1.41Zm0 4.95a3.62 3.62 0 0 0 1.14-2.29 3.43 3.43 0 0 0-1.14-2.66l-1.42 1.41c.5.5.58.88.57 1.12-.02.27-.18.62-.57 1l1.42 1.42Zm-4.95 0c.8.8 1.7 1.2 2.66 1.14.93-.06 1.7-.55 2.29-1.14l-1.42-1.42c-.38.4-.73.55-1 .57-.24.01-.62-.06-1.12-.57l-1.41 1.42Zm-1.4-1.75c.48.7.98 1.33 1.4 1.75l1.41-1.42c-.3-.3-.71-.81-1.15-1.46l-1.65 1.13Zm2.07 1.47c0-.6-.1-1.4-.25-2.22l-1.97.37c.15.77.22 1.43.22 1.85h2ZM12 23c.83 0 1.73-.2 2.43-.8a3.43 3.43 0 0 0 1.07-2.7h-2c0 .71-.2 1.03-.39 1.19-.2.18-.56.31-1.11.31v2Zm-3.5-3.5c0 1.13.35 2.06 1.07 2.7.7.6 1.6.8 2.43.8v-2c-.55 0-.9-.13-1.11-.31-.18-.16-.39-.48-.39-1.19h-2Zm.25-2.22c-.15.82-.25 1.63-.25 2.22h2c0-.42.07-1.08.22-1.85l-1.97-.37Zm.42 2.5c.42-.42.92-1.06 1.4-1.75L8.9 16.9c-.44.65-.86 1.17-1.15 1.46l1.41 1.42Zm-4.95 0a3.62 3.62 0 0 0 2.29 1.14c.95.07 1.86-.34 2.66-1.14l-1.41-1.42c-.5.5-.88.58-1.12.57-.27-.02-.62-.18-1-.57l-1.42 1.42Zm0-4.95c-.8.8-1.2 1.7-1.14 2.66.06.93.55 1.7 1.14 2.29l1.42-1.42c-.4-.38-.55-.73-.57-1-.01-.24.06-.62.57-1.12l-1.42-1.41Zm1.75-1.4c-.7.48-1.33.98-1.75 1.4l1.42 1.41c.3-.3.81-.71 1.46-1.15l-1.13-1.65ZM4.5 15.5c.6 0 1.4-.1 2.22-.25l-.37-1.97c-.77.15-1.43.22-1.85.22v2ZM1 12c0 .83.2 1.73.8 2.43a3.43 3.43 0 0 0 2.7 1.07v-2c-.71 0-1.03-.2-1.19-.39-.18-.2-.31-.56-.31-1.11H1Zm3.5-3.5c-1.13 0-2.06.35-2.7 1.07-.6.7-.8 1.6-.8 2.43h2c0-.55.13-.9.31-1.11.16-.18.48-.39 1.19-.39v-2Zm2.22.25C5.9 8.6 5.1 8.5 4.5 8.5v2c.42 0 1.08.07 1.85.22l.37-1.97Zm-2.5.42c.42.42 1.06.92 1.75 1.4L7.1 8.9c-.65-.44-1.17-.86-1.46-1.15L4.22 9.17Zm0-4.95a3.62 3.62 0 0 0-1.14 2.29c-.07.95.34 1.86 1.14 2.66l1.42-1.41c-.5-.5-.58-.88-.57-1.12.02-.27.18-.62.57-1L4.22 4.22Zm4.95 0c-.8-.8-1.7-1.2-2.66-1.14-.93.06-1.7.55-2.29 1.14l1.42 1.42c.38-.4.73-.55 1-.57.24-.01.62.06 1.12.57l1.41-1.42Zm1.4 1.75c-.48-.7-.98-1.33-1.4-1.75L7.76 5.64c.3.3.71.81 1.15 1.46l1.65-1.13ZM8.5 4.5c0 .6.1 1.4.25 2.22l1.97-.37c-.15-.77-.22-1.43-.22-1.85h-2ZM12 1c-.83 0-1.73.2-2.43.8A3.43 3.43 0 0 0 8.5 4.5h2c0-.71.2-1.03.39-1.19.2-.18.56-.31 1.11-.31V1Zm3.5 3.5c0-1.13-.35-2.06-1.07-2.7-.7-.6-1.6-.8-2.43-.8v2c.55 0 .9.13 1.11.31.18.16.39.48.39 1.19h2ZM15 12a3 3 0 0 1-3 3v2a5 5 0 0 0 5-5h-2Zm-3-3a3 3 0 0 1 3 3h2a5 5 0 0 0-5-5v2Zm-3 3a3 3 0 0 1 3-3V7a5 5 0 0 0-5 5h2Zm3 3a3 3 0 0 1-3-3H7a5 5 0 0 0 5 5v-2Z" fill="#333" mask="url(#a)"/></svg>